<svg class="main-svg" xmlns="http://www.w3.org/2000/svg" xmlns:xlink="http://www.w3.org/1999/xlink" width="2400" height="1600" style="" viewBox="0 0 1200 800"><rect x="0" y="0" width="1200" height="800" style="fill: rgb(255, 255, 255); fill-opacity: 1;"/><defs id="defs-33513a"><g class="clips"/><g class="gradients"/><g class="patterns"/></defs><g class="bglayer"/><g class="layer-below"><g class="imagelayer"/><g class="shapelayer"/></g><g class="cartesianlayer"/><g class="polarlayer"/><g class="smithlayer"/><g class="ternarylayer"/><g class="geolayer"/><g class="funnelarealayer"/><g class="pielayer"/><g class="iciclelayer"/><g class="treemaplayer"/><g class="sunburstlayer"/><g class="glimages"/><g class="sankey" transform="translate(190,100)matrix(1 0 0 1 0 0)" style="box-sizing: content-box; position: absolute; left: 0px; shape-rendering: geometricprecision; pointer-events: none;"><g class="sankey-links" style="fill: none;"><path class="sankey-link" d="M20,208.07905582823162C465,208.07905582823162 465,47.49586893460285 910,47.49586893460285L910,56.49206508076297C465,56.49206508076297 465,217.07525197439173 20,217.07525197439173Z" style="stroke: rgb(68, 68, 68); stroke-opacity: 1; fill: rgb(0, 0, 0); fill-opacity: 0.2; stroke-width: 0; opacity: 1;"/><path class="sankey-link" d="M20,248.20333103011671C465,248.20333103011671 465,417.12958348842255 910,417.12958348842255L910,420.131815870625C465,420.131815870625 465,251.20556341231924 20,251.20556341231924Z" style="stroke: rgb(68, 68, 68); stroke-opacity: 1; fill: rgb(0, 0, 0); fill-opacity: 0.2; stroke-width: 0; opacity: 1;"/><path class="sankey-link" d="M20,217.07525197439173C465,217.07525197439173 465,131.90595449374706 910,131.90595449374706L910,140.43041152560005C465,140.43041152560005 465,225.59970900624472 20,225.59970900624472Z" style="stroke: rgb(68, 68, 68); stroke-opacity: 1; fill: rgb(0, 0, 0); fill-opacity: 0.2; stroke-width: 0; opacity: 1;"/><path class="sankey-link" d="M20,225.59970900624472C465,225.59970900624472 465,201.70390418827813 910,201.70390418827813L910,206.83577618108163C465,206.83577618108163 465,230.73158099904822 20,230.73158099904822Z" style="stroke: rgb(68, 68, 68); stroke-opacity: 1; fill: rgb(0, 0, 0); fill-opacity: 0.2; stroke-width: 0; opacity: 1;"/><path class="sankey-link" d="M20,230.73158099904822C465,230.73158099904822 465,256.1652141402313 910,256.1652141402313L910,261.3060363948071C465,261.3060363948071 465,235.872403253624 20,235.872403253624Z" style="stroke: rgb(68, 68, 68); stroke-opacity: 1; fill: rgb(0, 0, 0); fill-opacity: 0.2; stroke-width: 0; opacity: 1;"/><path class="sankey-link" d="M20,251.2055634123192C465,251.2055634123192 465,457.91699057373467 910,457.91699057373467L910,459.28429438551825C465,459.28429438551825 465,252.57286722410285 20,252.57286722410285Z" style="stroke: rgb(68, 68, 68); stroke-opacity: 1; fill: rgb(0, 0, 0); fill-opacity: 0.2; stroke-width: 0; opacity: 1;"/><path class="sankey-link" d="M20,258.5927485669531C465,258.5927485669531 465,589.7366317902743 910,589.7366317902743L910,591.3155264639029C465,591.3155264639029 465,260.1716432405817 20,260.1716432405817Z" style="stroke: rgb(68, 68, 68); stroke-opacity: 1; fill: rgb(0, 0, 0); fill-opacity: 0.2; stroke-width: 0; opacity: 1;"/><path class="sankey-link" d="M20,252.57286722410282C465,252.57286722410282 465,496.99402629507165 910,496.99402629507165L910,500.7744797288567C465,500.7744797288567 465,256.3533206578879 20,256.3533206578879Z" style="stroke: rgb(68, 68, 68); stroke-opacity: 1; fill: rgb(0, 0, 0); fill-opacity: 0.2; stroke-width: 0; opacity: 1;"/><path class="sankey-link" d="M20,235.87240325362401C465,235.87240325362401 465,319.43738400777715 910,319.43738400777715L910,331.7683117842698C465,331.7683117842698 465,248.20333103011674 20,248.20333103011674Z" style="stroke: rgb(68, 68, 68); stroke-opacity: 1; fill: rgb(0, 0, 0); fill-opacity: 0.2; stroke-width: 0; opacity: 1;"/><path class="sankey-link" d="M20,256.3533206578879C465,256.3533206578879 465,550.1055689729294 910,550.1055689729294L910,552.3449968819946C465,552.3449968819946 465,258.59274856695305 20,258.59274856695305Z" style="stroke: rgb(68, 68, 68); stroke-opacity: 1; fill: rgb(0, 0, 0); fill-opacity: 0.2; stroke-width: 0; opacity: 1;"/><path class="sankey-link" d="M20,280.1716432405817C465,280.1716432405817 465,56.49206508076297 910,56.49206508076297L910,67.97637833551612C465,67.97637833551612 465,291.65595649533486 20,291.65595649533486Z" style="stroke: rgb(68, 68, 68); stroke-opacity: 1; fill: rgb(0, 0, 0); fill-opacity: 0.2; stroke-width: 0; opacity: 1;"/><path class="sankey-link" d="M20,333.33427646822327C465,333.33427646822327 465,420.1318158706251 910,420.1318158706251L910,425.63921602723036C465,425.63921602723036 465,338.84167662482855 20,338.84167662482855Z" style="stroke: rgb(68, 68, 68); stroke-opacity: 1; fill: rgb(0, 0, 0); fill-opacity: 0.2; stroke-width: 0; opacity: 1;"/><path class="sankey-link" d="M20,291.65595649533486C465,291.65595649533486 465,140.43041152560005 910,140.43041152560005L910,151.270667924561C465,151.270667924561 465,302.4962128942958 20,302.4962128942958Z" style="stroke: rgb(68, 68, 68); stroke-opacity: 1; fill: rgb(0, 0, 0); fill-opacity: 0.2; stroke-width: 0; opacity: 1;"/><path class="sankey-link" d="M20,302.4962128942958C465,302.4962128942958 465,206.83577618108163 910,206.83577618108163L910,211.39559399812183C465,211.39559399812183 465,307.056030711336 20,307.056030711336Z" style="stroke: rgb(68, 68, 68); stroke-opacity: 1; fill: rgb(0, 0, 0); fill-opacity: 0.2; stroke-width: 0; opacity: 1;"/><path class="sankey-link" d="M20,307.056030711336C465,307.056030711336 465,261.30603639480705 910,261.30603639480705L910,266.21817279369134C465,266.21817279369134 465,311.9681671102203 20,311.9681671102203Z" style="stroke: rgb(68, 68, 68); stroke-opacity: 1; fill: rgb(0, 0, 0); fill-opacity: 0.2; stroke-width: 0; opacity: 1;"/><path class="sankey-link" d="M20,338.84167662482855C465,338.84167662482855 465,459.2842943855183 910,459.2842943855183L910,461.79163799144015C465,461.79163799144015 465,341.3490202307504 20,341.3490202307504Z" style="stroke: rgb(68, 68, 68); stroke-opacity: 1; fill: rgb(0, 0, 0); fill-opacity: 0.2; stroke-width: 0; opacity: 1;"/><path class="sankey-link" d="M20,349.43353674942216C465,349.43353674942216 465,591.3155264639029 910,591.3155264639029L910,594.3590728838931C465,594.3590728838931 465,352.47708316941225 20,352.47708316941225Z" style="stroke: rgb(68, 68, 68); stroke-opacity: 1; fill: rgb(0, 0, 0); fill-opacity: 0.2; stroke-width: 0; opacity: 1;"/><path class="sankey-link" d="M20,341.3490202307504C465,341.3490202307504 465,500.7744797288567 910,500.7744797288567L910,505.88391339860175C465,505.88391339860175 465,346.45845390049544 20,346.45845390049544Z" style="stroke: rgb(68, 68, 68); stroke-opacity: 1; fill: rgb(0, 0, 0); fill-opacity: 0.2; stroke-width: 0; opacity: 1;"/><path class="sankey-link" d="M20,311.9681671102203C465,311.9681671102203 465,331.7683117842699 910,331.7683117842699L910,353.13442114227286C465,353.13442114227286 465,333.33427646822327 20,333.33427646822327Z" style="stroke: rgb(68, 68, 68); stroke-opacity: 1; fill: rgb(0, 0, 0); fill-opacity: 0.2; stroke-width: 0; opacity: 1;"/><path class="sankey-link" d="M20,346.45845390049544C465,346.45845390049544 465,552.3449968819946 910,552.3449968819946L910,555.3200797309212C465,555.3200797309212 465,349.43353674942216 20,349.43353674942216Z" style="stroke: rgb(68, 68, 68); stroke-opacity: 1; fill: rgb(0, 0, 0); fill-opacity: 0.2; stroke-width: 0; opacity: 1;"/><path class="sankey-link" d="M20,109.65555730926218C465,109.65555730926218 465,32.6746359884849 910,32.6746359884849L910,47.495868934602846C465,47.495868934602846 465,124.47679025538011 20,124.47679025538011Z" style="stroke: rgb(68, 68, 68); stroke-opacity: 1; fill: rgb(0, 0, 0); fill-opacity: 0.2; stroke-width: 0; opacity: 1;"/><path class="sankey-link" d="M20,164.81209259443384C465,164.81209259443384 465,412.1955180749286 910,412.1955180749286L910,417.12958348842255C465,417.12958348842255 465,169.7461580079278 20,169.7461580079278Z" style="stroke: rgb(68, 68, 68); stroke-opacity: 1; fill: rgb(0, 0, 0); fill-opacity: 0.2; stroke-width: 0; opacity: 1;"/><path class="sankey-link" d="M20,124.47679025538012C465,124.47679025538012 465,119.92973192566335 910,119.92973192566335L910,131.90595449374706C465,131.90595449374706 465,136.45301282346384 20,136.45301282346384Z" style="stroke: rgb(68, 68, 68); stroke-opacity: 1; fill: rgb(0, 0, 0); fill-opacity: 0.2; stroke-width: 0; opacity: 1;"/><path class="sankey-link" d="M20,136.45301282346384C465,136.45301282346384 465,194.74516859326226 910,194.74516859326226L910,201.70390418827813C465,201.70390418827813 465,143.4117484184797 20,143.4117484184797Z" style="stroke: rgb(68, 68, 68); stroke-opacity: 1; fill: rgb(0, 0, 0); fill-opacity: 0.2; stroke-width: 0; opacity: 1;"/><path class="sankey-link" d="M20,143.4117484184797C465,143.4117484184797 465,250.40492191137696 910,250.40492191137696L910,256.1652141402313C465,256.1652141402313 465,149.17204064733403 20,149.17204064733403Z" style="stroke: rgb(68, 68, 68); stroke-opacity: 1; fill: rgb(0, 0, 0); fill-opacity: 0.2; stroke-width: 0; opacity: 1;"/><path class="sankey-link" d="M20,169.74615800792776C465,169.74615800792776 465,454.470499138449 910,454.470499138449L910,457.91699057373467C465,457.91699057373467 465,173.19264944321344 20,173.19264944321344Z" style="stroke: rgb(68, 68, 68); stroke-opacity: 1; fill: rgb(0, 0, 0); fill-opacity: 0.2; stroke-width: 0; opacity: 1;"/><path class="sankey-link" d="M20,183.24495335298445C465,183.24495335298445 465,584.902529315027 910,584.902529315027L910,589.7366317902744C465,589.7366317902744 465,188.07905582823173 20,188.07905582823173Z" style="stroke: rgb(68, 68, 68); stroke-opacity: 1; fill: rgb(0, 0, 0); fill-opacity: 0.2; stroke-width: 0; opacity: 1;"/><path class="sankey-link" d="M20,173.1926494432134C465,173.1926494432134 465,491.07217776896624 910,491.07217776896624L910,496.9940262950716C465,496.9940262950716 465,179.11449796931882 20,179.11449796931882Z" style="stroke: rgb(68, 68, 68); stroke-opacity: 1; fill: rgb(0, 0, 0); fill-opacity: 0.2; stroke-width: 0; opacity: 1;"/><path class="sankey-link" d="M20,149.17204064733406C465,149.17204064733406 465,303.7973320606774 910,303.7973320606774L910,319.43738400777715C465,319.43738400777715 465,164.81209259443384 20,164.81209259443384Z" style="stroke: rgb(68, 68, 68); stroke-opacity: 1; fill: rgb(0, 0, 0); fill-opacity: 0.2; stroke-width: 0; opacity: 1;"/><path class="sankey-link" d="M20,179.11449796931882C465,179.11449796931882 465,545.9751135892637 910,545.9751135892637L910,550.1055689729293C465,550.1055689729293 465,183.24495335298442 20,183.24495335298442Z" style="stroke: rgb(68, 68, 68); stroke-opacity: 1; fill: rgb(0, 0, 0); fill-opacity: 0.2; stroke-width: 0; opacity: 1;"/><path class="sankey-link" d="M20,53.06702454587503C465,53.06702454587503 465,24.477625469992795 910,24.477625469992795L910,32.6746359884849C465,32.6746359884849 465,61.264035064367135 20,61.264035064367135Z" style="stroke: rgb(68, 68, 68); stroke-opacity: 1; fill: rgb(0, 0, 0); fill-opacity: 0.2; stroke-width: 0; opacity: 1;"/><path class="sankey-link" d="M20,83.39034796405613C465,83.39034796405613 465,410.40689267142955 910,410.40689267142955L910,412.1955180749286C465,412.1955180749286 465,85.17897336755519 20,85.17897336755519Z" style="stroke: rgb(68, 68, 68); stroke-opacity: 1; fill: rgb(0, 0, 0); fill-opacity: 0.2; stroke-width: 0; opacity: 1;"/><path class="sankey-link" d="M20,61.26403506436713C465,61.26403506436713 465,112.59617189531335 910,112.59617189531335L910,119.92973192566333C465,119.92973192566333 465,68.59759509471712 20,68.59759509471712Z" style="stroke: rgb(68, 68, 68); stroke-opacity: 1; fill: rgb(0, 0, 0); fill-opacity: 0.2; stroke-width: 0; opacity: 1;"/><path class="sankey-link" d="M20,68.59759509471714C465,68.59759509471714 465,190.470061799517 910,190.470061799517L910,194.74516859326224C465,194.74516859326224 465,72.8727018884624 20,72.8727018884624Z" style="stroke: rgb(68, 68, 68); stroke-opacity: 1; fill: rgb(0, 0, 0); fill-opacity: 0.2; stroke-width: 0; opacity: 1;"/><path class="sankey-link" d="M20,72.87270188846239C465,72.87270188846239 465,245.8140112861264 910,245.8140112861264L910,250.40492191137696C465,250.40492191137696 465,77.46361251371295 20,77.46361251371295Z" style="stroke: rgb(68, 68, 68); stroke-opacity: 1; fill: rgb(0, 0, 0); fill-opacity: 0.2; stroke-width: 0; opacity: 1;"/><path class="sankey-link" d="M20,85.17897336755517C465,85.17897336755517 465,453.8549911210008 910,453.8549911210008L910,454.470499138449C465,454.470499138449 465,85.79448138500332 20,85.79448138500332Z" style="stroke: rgb(0, 0, 0); stroke-opacity: 0.2; fill: rgb(0, 0, 0); fill-opacity: 0.2; stroke-width: 1; opacity: 1;"/><path class="sankey-link" d="M20,89.389859475241C465,89.389859475241 465,584.6368314810057 910,584.6368314810057L910,584.902529315027C465,584.902529315027 465,89.65555730926224 20,89.65555730926224Z" style="stroke: rgb(0, 0, 0); stroke-opacity: 0.2; fill: rgb(0, 0, 0); fill-opacity: 0.2; stroke-width: 1; opacity: 1;"/><path class="sankey-link" d="M20,85.79448138500332C465,85.79448138500332 465,488.0119797108497 910,488.0119797108497L910,491.0721777689662C465,491.0721777689662 465,88.85467944311988 20,88.85467944311988Z" style="stroke: rgb(68, 68, 68); stroke-opacity: 1; fill: rgb(0, 0, 0); fill-opacity: 0.2; stroke-width: 0; opacity: 1;"/><path class="sankey-link" d="M20,77.46361251371293C465,77.46361251371293 465,297.8705966103342 910,297.8705966103342L910,303.79733206067743C465,303.79733206067743 465,83.39034796405612 20,83.39034796405612Z" style="stroke: rgb(68, 68, 68); stroke-opacity: 1; fill: rgb(0, 0, 0); fill-opacity: 0.2; stroke-width: 0; opacity: 1;"/><path class="sankey-link" d="M20,88.85467944311986C465,88.85467944311986 465,545.4399335571426 910,545.4399335571426L910,545.9751135892637C465,545.9751135892637 465,89.389859475241 20,89.389859475241Z" style="stroke: rgb(0, 0, 0); stroke-opacity: 0.2; fill: rgb(0, 0, 0); fill-opacity: 0.2; stroke-width: 1; opacity: 1;"/><path class="sankey-link" d="M20,539.1514444530193C465,539.1514444530193 465,84.81366528331807 910,84.81366528331807L910,89.1463696545897C465,89.1463696545897 465,543.4841488242909 20,543.4841488242909Z" style="stroke: rgb(68, 68, 68); stroke-opacity: 1; fill: rgb(0, 0, 0); fill-opacity: 0.2; stroke-width: 0; opacity: 1;"/><path class="sankey-link" d="M20,554.0151054955282C465,554.0151054955282 465,430.9405211822371 910,430.9405211822371L910,432.6252134028029C465,432.6252134028029 465,555.6997977160939 20,555.6997977160939Z" style="stroke: rgb(68, 68, 68); stroke-opacity: 1; fill: rgb(0, 0, 0); fill-opacity: 0.2; stroke-width: 0; opacity: 1;"/><path class="sankey-link" d="M20,543.4841488242909C465,543.4841488242909 465,165.13924969113953 910,165.13924969113953L910,167.47882275115683C465,167.47882275115683 465,545.8237218843082 20,545.8237218843082Z" style="stroke: rgb(68, 68, 68); stroke-opacity: 1; fill: rgb(0, 0, 0); fill-opacity: 0.2; stroke-width: 0; opacity: 1;"/><path class="sankey-link" d="M20,545.8237218843082C465,545.8237218843082 465,220.75759786099104 910,220.75759786099104L910,223.2651658513638C465,223.2651658513638 465,548.3312898746809 20,548.3312898746809Z" style="stroke: rgb(68, 68, 68); stroke-opacity: 1; fill: rgb(0, 0, 0); fill-opacity: 0.2; stroke-width: 0; opacity: 1;"/><path class="sankey-link" d="M20,548.3312898746809C465,548.3312898746809 465,274.1151752448165 910,274.1151752448165L910,276.42408673560504C465,276.42408673560504 465,550.6402013654696 20,550.6402013654696Z" style="stroke: rgb(68, 68, 68); stroke-opacity: 1; fill: rgb(0, 0, 0); fill-opacity: 0.2; stroke-width: 0; opacity: 1;"/><path class="sankey-link" d="M20,555.699797716094C465,555.699797716094 465,465.88827016447254 910,465.88827016447254L910,466.5846345332117C465,466.5846345332117 465,556.3961620848333 20,556.3961620848333Z" style="stroke: rgb(0, 0, 0); stroke-opacity: 0.2; fill: rgb(0, 0, 0); fill-opacity: 0.2; stroke-width: 1; opacity: 1;"/><path class="sankey-link" d="M20,561.8566100932543C465,561.8566100932543 465,615.1706691527355 910,615.1706691527355L910,618.8721801694506C465,618.8721801694506 465,565.5581211099694 20,565.5581211099694Z" style="stroke: rgb(68, 68, 68); stroke-opacity: 1; fill: rgb(0, 0, 0); fill-opacity: 0.2; stroke-width: 0; opacity: 1;"/><path class="sankey-link" d="M20,556.3961620848332C465,556.3961620848332 465,518.6982576067658 910,518.6982576067658L910,523.2466442190987C465,523.2466442190987 465,560.9445486971662 20,560.9445486971662Z" style="stroke: rgb(68, 68, 68); stroke-opacity: 1; fill: rgb(0, 0, 0); fill-opacity: 0.2; stroke-width: 0; opacity: 1;"/><path class="sankey-link" d="M20,550.6402013654695C465,550.6402013654695 465,382.2230644659926 910,382.2230644659926L910,385.5979685960514C465,385.5979685960514 465,554.0151054955284 20,554.0151054955284Z" style="stroke: rgb(68, 68, 68); stroke-opacity: 1; fill: rgb(0, 0, 0); fill-opacity: 0.2; stroke-width: 0; opacity: 1;"/><path class="sankey-link" d="M20,560.9445486971662C465,560.9445486971662 465,561.9170448573883 910,561.9170448573883L910,562.8291062534764C465,562.8291062534764 465,561.8566100932543 20,561.8566100932543Z" style="stroke: rgb(0, 0, 0); stroke-opacity: 0.2; fill: rgb(0, 0, 0); fill-opacity: 0.2; stroke-width: 1; opacity: 1;"/><path class="sankey-link" d="M20,372.477083169412C465,372.477083169412 465,67.97637833551612 910,67.97637833551612L910,75.37720035558029C465,75.37720035558029 465,379.8779051894762 20,379.8779051894762Z" style="stroke: rgb(68, 68, 68); stroke-opacity: 1; fill: rgb(0, 0, 0); fill-opacity: 0.2; stroke-width: 0; opacity: 1;"/><path class="sankey-link" d="M20,408.1468655362132C465,408.1468655362132 465,425.63921602723036 910,425.63921602723036L910,427.9363702001918C465,427.9363702001918 465,410.44401970917465 20,410.44401970917465Z" style="stroke: rgb(68, 68, 68); stroke-opacity: 1; fill: rgb(0, 0, 0); fill-opacity: 0.2; stroke-width: 0; opacity: 1;"/><path class="sankey-link" d="M20,379.8779051894762C465,379.8779051894762 465,151.27066792456097 910,151.27066792456097L910,155.4425141149579C465,155.4425141149579 465,384.0497513798732 20,384.0497513798732Z" style="stroke: rgb(68, 68, 68); stroke-opacity: 1; fill: rgb(0, 0, 0); fill-opacity: 0.2; stroke-width: 0; opacity: 1;"/><path class="sankey-link" d="M20,384.04975137987316C465,384.04975137987316 465,211.39559399812185 910,211.39559399812185L910,216.524503727183C465,216.524503727183 465,389.17866110893436 20,389.17866110893436Z" style="stroke: rgb(68, 68, 68); stroke-opacity: 1; fill: rgb(0, 0, 0); fill-opacity: 0.2; stroke-width: 0; opacity: 1;"/><path class="sankey-link" d="M20,389.1786611089343C465,389.1786611089343 465,266.21817279369134 910,266.21817279369134L910,268.8577882941199C465,268.8577882941199 465,391.8182766093629 20,391.8182766093629Z" style="stroke: rgb(68, 68, 68); stroke-opacity: 1; fill: rgb(0, 0, 0); fill-opacity: 0.2; stroke-width: 0; opacity: 1;"/><path class="sankey-link" d="M20,410.44401970917465C465,410.44401970917465 465,461.79163799144015 910,461.79163799144015L910,462.92122251619065C465,462.92122251619065 465,411.57360423392515 20,411.57360423392515Z" style="stroke: rgb(68, 68, 68); stroke-opacity: 1; fill: rgb(0, 0, 0); fill-opacity: 0.2; stroke-width: 0; opacity: 1;"/><path class="sankey-link" d="M20,417.5438289407357C465,417.5438289407357 465,594.359072883893 910,594.359072883893L910,598.8862949397875C465,598.8862949397875 465,422.0710509966301 20,422.0710509966301Z" style="stroke: rgb(68, 68, 68); stroke-opacity: 1; fill: rgb(0, 0, 0); fill-opacity: 0.2; stroke-width: 0; opacity: 1;"/><path class="sankey-link" d="M20,411.57360423392515C465,411.57360423392515 465,505.88391339860175 910,505.88391339860175L910,509.7777595190688C465,509.7777595190688 465,415.4674503543922 20,415.4674503543922Z" style="stroke: rgb(68, 68, 68); stroke-opacity: 1; fill: rgb(0, 0, 0); fill-opacity: 0.2; stroke-width: 0; opacity: 1;"/><path class="sankey-link" d="M20,391.8182766093629C465,391.8182766093629 465,353.13442114227286 910,353.13442114227286L910,369.4630100691232C465,369.4630100691232 465,408.1468655362132 20,408.1468655362132Z" style="stroke: rgb(68, 68, 68); stroke-opacity: 1; fill: rgb(0, 0, 0); fill-opacity: 0.2; stroke-width: 0; opacity: 1;"/><path class="sankey-link" d="M20,415.46745035439227C465,415.46745035439227 465,555.3200797309213 910,555.3200797309213L910,557.3964583172648C465,557.3964583172648 465,417.54382894073575 20,417.54382894073575Z" style="stroke: rgb(68, 68, 68); stroke-opacity: 1; fill: rgb(0, 0, 0); fill-opacity: 0.2; stroke-width: 0; opacity: 1;"/><path class="sankey-link" d="M20,442.07105099663C465,442.07105099663 465,75.3772003555803 910,75.3772003555803L910,84.81366528331807C465,84.81366528331807 465,451.5075159243678 20,451.5075159243678Z" style="stroke: rgb(68, 68, 68); stroke-opacity: 1; fill: rgb(0, 0, 0); fill-opacity: 0.2; stroke-width: 0; opacity: 1;"/><path class="sankey-link" d="M20,483.45478698192346C465,483.45478698192346 465,427.9363702001918 910,427.9363702001918L910,430.9405211822371C465,430.9405211822371 465,486.45893796396876 20,486.45893796396876Z" style="stroke: rgb(68, 68, 68); stroke-opacity: 1; fill: rgb(0, 0, 0); fill-opacity: 0.2; stroke-width: 0; opacity: 1;"/><path class="sankey-link" d="M20,451.5075159243678C465,451.5075159243678 465,155.4425141149579 910,155.4425141149579L910,165.13924969113955C465,165.13924969113955 465,461.2042515005494 20,461.2042515005494Z" style="stroke: rgb(68, 68, 68); stroke-opacity: 1; fill: rgb(0, 0, 0); fill-opacity: 0.2; stroke-width: 0; opacity: 1;"/><path class="sankey-link" d="M20,461.20425150054945C465,461.20425150054945 465,216.52450372718303 910,216.52450372718303L910,220.75759786099107C465,220.75759786099107 465,465.4373456343574 20,465.4373456343574Z" style="stroke: rgb(68, 68, 68); stroke-opacity: 1; fill: rgb(0, 0, 0); fill-opacity: 0.2; stroke-width: 0; opacity: 1;"/><path class="sankey-link" d="M20,465.4373456343575C465,465.4373456343575 465,268.8577882941199 910,268.8577882941199L910,274.11517524481656C465,274.11517524481656 465,470.6947325850541 20,470.6947325850541Z" style="stroke: rgb(68, 68, 68); stroke-opacity: 1; fill: rgb(0, 0, 0); fill-opacity: 0.2; stroke-width: 0; opacity: 1;"/><path class="sankey-link" d="M20,486.45893796396876C465,486.45893796396876 465,462.92122251619065 910,462.92122251619065L910,465.88827016447254C465,465.88827016447254 465,489.42598561225066 20,489.42598561225066Z" style="stroke: rgb(68, 68, 68); stroke-opacity: 1; fill: rgb(0, 0, 0); fill-opacity: 0.2; stroke-width: 0; opacity: 1;"/><path class="sankey-link" d="M20,502.8670702400711C465,502.8670702400711 465,598.8862949397874 910,598.8862949397874L910,615.1706691527356C465,615.1706691527356 465,519.1514444530193 20,519.1514444530193Z" style="stroke: rgb(68, 68, 68); stroke-opacity: 1; fill: rgb(0, 0, 0); fill-opacity: 0.2; stroke-width: 0; opacity: 1;"/><path class="sankey-link" d="M20,489.42598561225066C465,489.42598561225066 465,509.77775951906887 910,509.77775951906887L910,518.6982576067658C465,518.6982576067658 465,498.3464836999476 20,498.3464836999476Z" style="stroke: rgb(68, 68, 68); stroke-opacity: 1; fill: rgb(0, 0, 0); fill-opacity: 0.2; stroke-width: 0; opacity: 1;"/><path class="sankey-link" d="M20,470.69473258505406C465,470.69473258505406 465,369.4630100691232 910,369.4630100691232L910,382.22306446599254C465,382.22306446599254 465,483.4547869819234 20,483.4547869819234Z" style="stroke: rgb(68, 68, 68); stroke-opacity: 1; fill: rgb(0, 0, 0); fill-opacity: 0.2; stroke-width: 0; opacity: 1;"/><path class="sankey-link" d="M20,498.34648369994756C465,498.34648369994756 465,557.3964583172648 910,557.3964583172648L910,561.9170448573883C465,561.9170448573883 465,502.8670702400711 20,502.8670702400711Z" style="stroke: rgb(68, 68, 68); stroke-opacity: 1; fill: rgb(0, 0, 0); fill-opacity: 0.2; stroke-width: 0; opacity: 1;"/><path class="sankey-link" d="M20,619.308141233811C465,619.308141233811 465,90.12240744420433 910,90.12240744420433L910,90.12353541620209C465,90.12353541620209 465,619.3092692058087 20,619.3092692058087Z" style="stroke: rgb(0, 0, 0); stroke-opacity: 0.2; fill: rgb(0, 0, 0); fill-opacity: 0.2; stroke-width: 1; opacity: 1;"/><path class="sankey-link" d="M20,619.597498075804C465,619.597498075804 465,433.6704235380102 910,433.6704235380102L910,433.6809097701835C465,433.6809097701835 465,619.6079843079772 20,619.6079843079772Z" style="stroke: rgb(0, 0, 0); stroke-opacity: 0.2; fill: rgb(0, 0, 0); fill-opacity: 0.2; stroke-width: 1; opacity: 1;"/><path class="sankey-link" d="M20,619.3092692058088C465,619.3092692058088 465,168.43633306607532 910,168.43633306607532L910,168.55022445722054C465,168.55022445722054 465,619.4231605969541 20,619.4231605969541Z" style="stroke: rgb(0, 0, 0); stroke-opacity: 0.2; fill: rgb(0, 0, 0); fill-opacity: 0.2; stroke-width: 1; opacity: 1;"/><path class="sankey-link" d="M20,619.4231605969541C465,619.4231605969541 465,224.36072812182962 910,224.36072812182962L910,224.36382899902597C465,224.36382899902597 465,619.4262614741505 20,619.4262614741505Z" style="stroke: rgb(0, 0, 0); stroke-opacity: 0.2; fill: rgb(0, 0, 0); fill-opacity: 0.2; stroke-width: 1; opacity: 1;"/><path class="sankey-link" d="M20,619.4262614741505C465,619.4262614741505 465,277.0883211778561 910,277.0883211778561L910,277.18215848280215C465,277.18215848280215 465,619.5200987790964 20,619.5200987790964Z" style="stroke: rgb(0, 0, 0); stroke-opacity: 0.2; fill: rgb(0, 0, 0); fill-opacity: 0.2; stroke-width: 1; opacity: 1;"/><path class="sankey-link" d="M20,619.6079843079773C465,619.6079843079773 465,467.090106743493 910,467.090106743493L910,467.1019787836803C465,467.1019787836803 465,619.6198563481647 20,619.6198563481647Z" style="stroke: rgb(0, 0, 0); stroke-opacity: 0.2; fill: rgb(0, 0, 0); fill-opacity: 0.2; stroke-width: 1; opacity: 1;"/><path class="sankey-link" d="M20,619.9971706135557C465,619.9971706135557 465,619.9971706135556 910,619.9971706135556L910,619.9999999999999C465,619.9999999999999 465,620 20,620Z" style="stroke: rgb(0, 0, 0); stroke-opacity: 0.2; fill: rgb(0, 0, 0); fill-opacity: 0.2; stroke-width: 1; opacity: 1;"/><path class="sankey-link" d="M20,619.6198563481646C465,619.6198563481646 465,525.2462439809907 910,525.2462439809907L910,525.3205566905302C465,525.3205566905302 465,619.6941690577041 20,619.6941690577041Z" style="stroke: rgb(0, 0, 0); stroke-opacity: 0.2; fill: rgb(0, 0, 0); fill-opacity: 0.2; stroke-width: 1; opacity: 1;"/><path class="sankey-link" d="M20,619.5200987790965C465,619.5200987790965 465,389.80788624718906 910,389.80788624718906L910,389.8852855438965C465,389.8852855438965 465,619.597498075804 20,619.597498075804Z" style="stroke: rgb(0, 0, 0); stroke-opacity: 0.2; fill: rgb(0, 0, 0); fill-opacity: 0.2; stroke-width: 1; opacity: 1;"/><path class="sankey-link" d="M20,619.6941690577041C465,619.6941690577041 465,564.0005913574447 910,564.0005913574447L910,564.3035929132963C465,564.3035929132963 465,619.9971706135557 20,619.9971706135557Z" style="stroke: rgb(0, 0, 0); stroke-opacity: 0.2; fill: rgb(0, 0, 0); fill-opacity: 0.2; stroke-width: 1; opacity: 1;"/><path class="sankey-link" d="M20,22.87514382194422C465,22.87514382194422 465,21.7133896991566 910,21.7133896991566L910,24.477625469992795C465,24.477625469992795 465,25.639379592780415 20,25.639379592780415Z" style="stroke: rgb(68, 68, 68); stroke-opacity: 1; fill: rgb(0, 0, 0); fill-opacity: 0.2; stroke-width: 0; opacity: 1;"/><path class="sankey-link" d="M20,31.37702894089295C465,31.37702894089295 465,409.88730254777704 910,409.88730254777704L910,410.40689267142955C465,410.40689267142955 465,31.896619064545476 20,31.896619064545476Z" style="stroke: rgb(0, 0, 0); stroke-opacity: 0.2; fill: rgb(0, 0, 0); fill-opacity: 0.2; stroke-width: 1; opacity: 1;"/><path class="sankey-link" d="M20,25.639379592780415C465,25.639379592780415 465,110.220080235017 910,110.220080235017L910,112.59617189531336C465,112.59617189531336 465,28.015471253076768 20,28.015471253076768Z" style="stroke: rgb(68, 68, 68); stroke-opacity: 1; fill: rgb(0, 0, 0); fill-opacity: 0.2; stroke-width: 0; opacity: 1;"/><path class="sankey-link" d="M20,28.01547125307677C465,28.01547125307677 465,189.14347807039644 910,189.14347807039644L910,190.470061799517C465,190.470061799517 465,29.342054982197343 20,29.342054982197343Z" style="stroke: rgb(68, 68, 68); stroke-opacity: 1; fill: rgb(0, 0, 0); fill-opacity: 0.2; stroke-width: 0; opacity: 1;"/><path class="sankey-link" d="M20,29.34205498219734C465,29.34205498219734 465,244.44893134011156 910,244.44893134011156L910,245.81401128612637C465,245.81401128612637 465,30.707134928212177 20,30.707134928212177Z" style="stroke: rgb(68, 68, 68); stroke-opacity: 1; fill: rgb(0, 0, 0); fill-opacity: 0.2; stroke-width: 0; opacity: 1;"/><path class="sankey-link" d="M20,31.896619064545476C465,31.896619064545476 465,453.6812731869657 910,453.6812731869657L910,453.85499112100075C465,453.85499112100075 465,32.070336998580544 20,32.070336998580544Z" style="stroke: rgb(0, 0, 0); stroke-opacity: 0.2; fill: rgb(0, 0, 0); fill-opacity: 0.2; stroke-width: 1; opacity: 1;"/><path class="sankey-link" d="M20,32.80124252401464C465,32.80124252401464 465,584.3710494591454 910,584.3710494591454L910,584.6368314810057C465,584.6368314810057 465,33.067024545875014 20,33.067024545875014Z" style="stroke: rgb(0, 0, 0); stroke-opacity: 0.2; fill: rgb(0, 0, 0); fill-opacity: 0.2; stroke-width: 1; opacity: 1;"/><path class="sankey-link" d="M20,32.070336998580544C465,32.070336998580544 465,487.35885368621274 910,487.35885368621274L910,488.01197971084963C465,488.01197971084963 465,32.72346302321748 20,32.72346302321748Z" style="stroke: rgb(0, 0, 0); stroke-opacity: 0.2; fill: rgb(0, 0, 0); fill-opacity: 0.2; stroke-width: 1; opacity: 1;"/><path class="sankey-link" d="M20,30.707134928212177C465,30.707134928212177 465,297.2007025976534 910,297.2007025976534L910,297.87059661033413C465,297.87059661033413 465,31.37702894089295 20,31.37702894089295Z" style="stroke: rgb(0, 0, 0); stroke-opacity: 0.2; fill: rgb(0, 0, 0); fill-opacity: 0.2; stroke-width: 1; opacity: 1;"/><path class="sankey-link" d="M20,32.72346302321748C465,32.72346302321748 465,545.3621540563454 910,545.3621540563454L910,545.4399335571425C465,545.4399335571425 465,32.80124252401464 20,32.80124252401464Z" style="stroke: rgb(0, 0, 0); stroke-opacity: 0.2; fill: rgb(0, 0, 0); fill-opacity: 0.2; stroke-width: 1; opacity: 1;"/><path class="sankey-link" d="M20,585.5581211099695C465,585.5581211099695 465,89.1463696545897 910,89.1463696545897L910,90.12240744420433C465,90.12240744420433 465,586.5341588995841 20,586.5341588995841Z" style="stroke: rgb(0, 0, 0); stroke-opacity: 0.2; fill: rgb(0, 0, 0); fill-opacity: 0.2; stroke-width: 1; opacity: 1;"/><path class="sankey-link" d="M20,593.4613835783571C465,593.4613835783571 465,432.62521340280284 910,432.62521340280284L910,433.67042353801025C465,433.67042353801025 465,594.5065937135644 20,594.5065937135644Z" style="stroke: rgb(68, 68, 68); stroke-opacity: 1; fill: rgb(0, 0, 0); fill-opacity: 0.2; stroke-width: 0; opacity: 1;"/><path class="sankey-link" d="M20,586.5341588995841C465,586.5341588995841 465,167.47882275115683 910,167.47882275115683L910,168.4363330660753C465,168.4363330660753 465,587.4916692145025 20,587.4916692145025Z" style="stroke: rgb(0, 0, 0); stroke-opacity: 0.2; fill: rgb(0, 0, 0); fill-opacity: 0.2; stroke-width: 1; opacity: 1;"/><path class="sankey-link" d="M20,587.4916692145026C465,587.4916692145026 465,223.26516585136383 910,223.26516585136383L910,224.36072812182962C465,224.36072812182962 465,588.5872314849684 20,588.5872314849684Z" style="stroke: rgb(68, 68, 68); stroke-opacity: 1; fill: rgb(0, 0, 0); fill-opacity: 0.2; stroke-width: 0; opacity: 1;"/><path class="sankey-link" d="M20,588.5872314849685C465,588.5872314849685 465,276.4240867356051 910,276.4240867356051L910,277.0883211778561C465,277.0883211778561 465,589.2514659272194 20,589.2514659272194Z" style="stroke: rgb(0, 0, 0); stroke-opacity: 0.2; fill: rgb(0, 0, 0); fill-opacity: 0.2; stroke-width: 1; opacity: 1;"/><path class="sankey-link" d="M20,594.5065937135645C465,594.5065937135645 465,466.5846345332118 910,466.5846345332118L910,467.09010674349304C465,467.09010674349304 465,595.0120659238456 20,595.0120659238456Z" style="stroke: rgb(0, 0, 0); stroke-opacity: 0.2; fill: rgb(0, 0, 0); fill-opacity: 0.2; stroke-width: 1; opacity: 1;"/><path class="sankey-link" d="M20,598.183150789706C465,598.183150789706 465,618.8721801694505 910,618.8721801694505L910,619.9971706135555C465,619.9971706135555 465,599.3081412338109 20,599.3081412338109Z" style="stroke: rgb(68, 68, 68); stroke-opacity: 1; fill: rgb(0, 0, 0); fill-opacity: 0.2; stroke-width: 0; opacity: 1;"/><path class="sankey-link" d="M20,595.0120659238457C465,595.0120659238457 465,523.2466442190987 910,523.2466442190987L910,525.2462439809908C465,525.2462439809908 465,597.0116656857379 20,597.0116656857379Z" style="stroke: rgb(68, 68, 68); stroke-opacity: 1; fill: rgb(0, 0, 0); fill-opacity: 0.2; stroke-width: 0; opacity: 1;"/><path class="sankey-link" d="M20,589.2514659272194C465,589.2514659272194 465,385.5979685960514 910,385.5979685960514L910,389.807886247189C465,389.807886247189 465,593.4613835783571 20,593.4613835783571Z" style="stroke: rgb(68, 68, 68); stroke-opacity: 1; fill: rgb(0, 0, 0); fill-opacity: 0.2; stroke-width: 0; opacity: 1;"/><path class="sankey-link" d="M20,597.0116656857377C465,597.0116656857377 465,562.8291062534764 910,562.8291062534764L910,564.0005913574447C465,564.0005913574447 465,598.183150789706 20,598.183150789706Z" style="stroke: rgb(68, 68, 68); stroke-opacity: 1; fill: rgb(0, 0, 0); fill-opacity: 0.2; stroke-width: 0; opacity: 1;"/><path class="sankey-link" d="M20,3.410605131648481e-13C465,3.410605131648481e-13 465,20.000000000000057 910,20.000000000000057L910,21.7133896991566C465,21.7133896991566 465,1.713389699156885 20,1.713389699156885Z" style="stroke: rgb(68, 68, 68); stroke-opacity: 1; fill: rgb(0, 0, 0); fill-opacity: 0.2; stroke-width: 0; opacity: 1;"/><path class="sankey-link" d="M20,2.5068345870847177C465,2.5068345870847177 465,409.88528554389654 910,409.88528554389654L910,409.88730254777704C465,409.88730254777704 465,2.5088515909652025 20,2.5088515909652025Z" style="stroke: rgb(0, 0, 0); stroke-opacity: 0.2; fill: rgb(0, 0, 0); fill-opacity: 0.2; stroke-width: 1; opacity: 1;"/><path class="sankey-link" d="M20,1.713389699156885C465,1.713389699156885 465,110.12353541620209 910,110.12353541620209L910,110.22008023501698C465,110.22008023501698 465,1.8099345179717834 20,1.8099345179717834Z" style="stroke: rgb(0, 0, 0); stroke-opacity: 0.2; fill: rgb(0, 0, 0); fill-opacity: 0.2; stroke-width: 1; opacity: 1;"/><path class="sankey-link" d="M20,1.8099345179717834C465,1.8099345179717834 465,188.55022445722045 910,188.55022445722045L910,189.14347807039644C465,189.14347807039644 465,2.403188131147773 20,2.403188131147773Z" style="stroke: rgb(0, 0, 0); stroke-opacity: 0.2; fill: rgb(0, 0, 0); fill-opacity: 0.2; stroke-width: 1; opacity: 1;"/><path class="sankey-link" d="M20,2.4031881311477736C465,2.4031881311477736 465,244.36382899902588 910,244.36382899902588L910,244.44893134011153C465,244.44893134011153 465,2.488290472233434 20,2.488290472233434Z" style="stroke: rgb(0, 0, 0); stroke-opacity: 0.2; fill: rgb(0, 0, 0); fill-opacity: 0.2; stroke-width: 1; opacity: 1;"/><path class="sankey-link" d="M20,2.5088515909652025C465,2.5088515909652025 465,453.6809097701836 910,453.6809097701836L910,453.68127318696565C465,453.68127318696565 465,2.5092150077473305 20,2.5092150077473305Z" style="stroke: rgb(0, 0, 0); stroke-opacity: 0.2; fill: rgb(0, 0, 0); fill-opacity: 0.2; stroke-width: 1; opacity: 1;"/><path class="sankey-link" d="M20,2.8076872760951543C465,2.8076872760951543 465,584.3035929132963 910,584.3035929132963L910,584.3710494591454C465,584.3710494591454 465,2.875143821944272 20,2.875143821944272Z" style="stroke: rgb(0, 0, 0); stroke-opacity: 0.2; fill: rgb(0, 0, 0); fill-opacity: 0.2; stroke-width: 1; opacity: 1;"/><path class="sankey-link" d="M20,2.509215007747331C465,2.509215007747331 465,487.10197878368024 910,487.10197878368024L910,487.3588536862128C465,487.3588536862128 465,2.7660899102798515 20,2.7660899102798515Z" style="stroke: rgb(0, 0, 0); stroke-opacity: 0.2; fill: rgb(0, 0, 0); fill-opacity: 0.2; stroke-width: 1; opacity: 1;"/><path class="sankey-link" d="M20,2.488290472233434C465,2.488290472233434 465,297.1821584828021 910,297.1821584828021L910,297.20070259765333C465,297.20070259765333 465,2.506834587084718 20,2.506834587084718Z" style="stroke: rgb(0, 0, 0); stroke-opacity: 0.2; fill: rgb(0, 0, 0); fill-opacity: 0.2; stroke-width: 1; opacity: 1;"/><path class="sankey-link" d="M20,2.766089910279851C465,2.766089910279851 465,545.3205566905301 910,545.3205566905301L910,545.3621540563454C465,545.3621540563454 465,2.807687276095154 20,2.807687276095154Z" style="stroke: rgb(0, 0, 0); stroke-opacity: 0.2; fill: rgb(0, 0, 0); fill-opacity: 0.2; stroke-width: 1; opacity: 1;"/></g><g class="sankey-node-set" style="cursor: move;"><g class="sankey-node" transform="translate(0.000,208.079)" style="opacity: 1;"><rect class="node-rect" width="20" height="52.0925874123501" style="stroke-width: 0.5; stroke: rgb(68, 68, 68); stroke-opacity: 1; fill: rgb(99, 110, 250); fill-opacity: 0.8;"/><text class="node-label" data-notex="1" x="0" y="0" text-anchor="start" transform="translate(23.25,30.24629370617505)" style="cursor: default; font-family: 'Open Sans', verdana, arial, sans-serif; font-size: 12px; fill: rgb(42, 63, 95); fill-opacity: 1; text-shadow: rgb(255, 255, 255) 1px 1px 1px, rgb(255, 255, 255) -1px -1px 1px, rgb(255, 255, 255) 1px -1px 1px, rgb(255, 255, 255) -1px 1px 1px; white-space: pre;">Ciências Agrárias</text></g><g class="sankey-node" transform="translate(0.000,280.172)" style="opacity: 1;"><rect class="node-rect" width="20" height="72.30543992883031" style="stroke-width: 0.5; stroke: rgb(68, 68, 68); stroke-opacity: 1; fill: rgb(239, 85, 59); fill-opacity: 0.8;"/><text class="node-label" data-notex="1" x="0" y="0" text-anchor="start" transform="translate(23.25,40.35271996441516)" style="cursor: default; font-family: 'Open Sans', verdana, arial, sans-serif; font-size: 12px; fill: rgb(42, 63, 95); fill-opacity: 1; text-shadow: rgb(255, 255, 255) 1px 1px 1px, rgb(255, 255, 255) -1px -1px 1px, rgb(255, 255, 255) 1px -1px 1px, rgb(255, 255, 255) -1px 1px 1px; white-space: pre;">Ciências Biológicas</text></g><g class="sankey-node" transform="translate(0.000,109.656)" style="opacity: 1;"><rect class="node-rect" width="20" height="78.42349851896944" style="stroke-width: 0.5; stroke: rgb(68, 68, 68); stroke-opacity: 1; fill: rgb(0, 204, 150); fill-opacity: 0.8;"/><text class="node-label" data-notex="1" x="0" y="0" text-anchor="start" transform="translate(23.25,43.41174925948472)" style="cursor: default; font-family: 'Open Sans', verdana, arial, sans-serif; font-size: 12px; fill: rgb(42, 63, 95); fill-opacity: 1; text-shadow: rgb(255, 255, 255) 1px 1px 1px, rgb(255, 255, 255) -1px -1px 1px, rgb(255, 255, 255) 1px -1px 1px, rgb(255, 255, 255) -1px 1px 1px; white-space: pre;">Ciências Exatas e da Terra</text></g><g class="sankey-node" transform="translate(0.000,53.067)" style="opacity: 1;"><rect class="node-rect" width="20" height="36.58853276338715" style="stroke-width: 0.5; stroke: rgb(68, 68, 68); stroke-opacity: 1; fill: rgb(171, 99, 250); fill-opacity: 0.8;"/><text class="node-label" data-notex="1" x="0" y="0" text-anchor="start" transform="translate(23.25,22.494266381693574)" style="cursor: default; font-family: 'Open Sans', verdana, arial, sans-serif; font-size: 12px; fill: rgb(42, 63, 95); fill-opacity: 1; text-shadow: rgb(255, 255, 255) 1px 1px 1px, rgb(255, 255, 255) -1px -1px 1px, rgb(255, 255, 255) 1px -1px 1px, rgb(255, 255, 255) -1px 1px 1px; white-space: pre;">Ciências Humanas</text></g><g class="sankey-node" transform="translate(0.000,539.151)" style="opacity: 1;"><rect class="node-rect" width="20" height="26.406676656950253" style="stroke-width: 0.5; stroke: rgb(68, 68, 68); stroke-opacity: 1; fill: rgb(255, 161, 90); fill-opacity: 0.8;"/><text class="node-label" data-notex="1" x="0" y="0" text-anchor="start" transform="translate(23.25,17.403338328475126)" style="cursor: default; font-family: 'Open Sans', verdana, arial, sans-serif; font-size: 12px; fill: rgb(42, 63, 95); fill-opacity: 1; text-shadow: rgb(255, 255, 255) 1px 1px 1px, rgb(255, 255, 255) -1px -1px 1px, rgb(255, 255, 255) 1px -1px 1px, rgb(255, 255, 255) -1px 1px 1px; white-space: pre;">Ciências Sociais Aplicadas</text></g><g class="sankey-node" transform="translate(0.000,372.477)" style="opacity: 1;"><rect class="node-rect" width="20" height="49.593967827217966" style="stroke-width: 0.5; stroke: rgb(68, 68, 68); stroke-opacity: 1; fill: rgb(25, 211, 243); fill-opacity: 0.8;"/><text class="node-label" data-notex="1" x="0" y="0" text-anchor="start" transform="translate(23.25,28.996983913608982)" style="cursor: default; font-family: 'Open Sans', verdana, arial, sans-serif; font-size: 12px; fill: rgb(42, 63, 95); fill-opacity: 1; text-shadow: rgb(255, 255, 255) 1px 1px 1px, rgb(255, 255, 255) -1px -1px 1px, rgb(255, 255, 255) 1px -1px 1px, rgb(255, 255, 255) -1px 1px 1px; white-space: pre;">Ciências da Saúde</text></g><g class="sankey-node" transform="translate(0.000,442.071)" style="opacity: 1;"><rect class="node-rect" width="20" height="77.08039345638929" style="stroke-width: 0.5; stroke: rgb(68, 68, 68); stroke-opacity: 1; fill: rgb(255, 102, 146); fill-opacity: 0.8;"/><text class="node-label" data-notex="1" x="0" y="0" text-anchor="start" transform="translate(23.25,42.74019672819465)" style="cursor: default; font-family: 'Open Sans', verdana, arial, sans-serif; font-size: 12px; fill: rgb(42, 63, 95); fill-opacity: 1; text-shadow: rgb(255, 255, 255) 1px 1px 1px, rgb(255, 255, 255) -1px -1px 1px, rgb(255, 255, 255) 1px -1px 1px, rgb(255, 255, 255) -1px 1px 1px; white-space: pre;">Engenharias</text></g><g class="sankey-node" transform="translate(0.000,619.308)" style="opacity: 1;"><rect class="node-rect" width="20" height="0.6918587661889433" style="stroke-width: 0.5; stroke: rgb(68, 68, 68); stroke-opacity: 1; fill: rgb(182, 232, 128); fill-opacity: 0.8;"/><text class="node-label" data-notex="1" x="0" y="0" text-anchor="start" transform="translate(23.25,4.545929383094471)" style="cursor: default; font-family: 'Open Sans', verdana, arial, sans-serif; font-size: 12px; fill: rgb(42, 63, 95); fill-opacity: 1; text-shadow: rgb(255, 255, 255) 1px 1px 1px, rgb(255, 255, 255) -1px -1px 1px, rgb(255, 255, 255) 1px -1px 1px, rgb(255, 255, 255) -1px 1px 1px; white-space: pre;">Indefinido</text></g><g class="sankey-node" transform="translate(0.000,22.875)" style="opacity: 1;"><rect class="node-rect" width="20" height="10.191880723930808" style="stroke-width: 0.5; stroke: rgb(68, 68, 68); stroke-opacity: 1; fill: rgb(255, 151, 255); fill-opacity: 0.8;"/><text class="node-label" data-notex="1" x="0" y="0" text-anchor="start" transform="translate(23.25,9.295940361965403)" style="cursor: default; font-family: 'Open Sans', verdana, arial, sans-serif; font-size: 12px; fill: rgb(42, 63, 95); fill-opacity: 1; text-shadow: rgb(255, 255, 255) 1px 1px 1px, rgb(255, 255, 255) -1px -1px 1px, rgb(255, 255, 255) 1px -1px 1px, rgb(255, 255, 255) -1px 1px 1px; white-space: pre;">Lingüística, Letras e Artes</text></g><g class="sankey-node" transform="translate(0.000,585.558)" style="opacity: 1;"><rect class="node-rect" width="20" height="13.750020123841523" style="stroke-width: 0.5; stroke: rgb(68, 68, 68); stroke-opacity: 1; fill: rgb(254, 203, 82); fill-opacity: 0.8;"/><text class="node-label" data-notex="1" x="0" y="0" text-anchor="start" transform="translate(23.25,11.07501006192076)" style="cursor: default; font-family: 'Open Sans', verdana, arial, sans-serif; font-size: 12px; fill: rgb(42, 63, 95); fill-opacity: 1; text-shadow: rgb(255, 255, 255) 1px 1px 1px, rgb(255, 255, 255) -1px -1px 1px, rgb(255, 255, 255) 1px -1px 1px, rgb(255, 255, 255) -1px 1px 1px; white-space: pre;">Outra</text></g><g class="sankey-node" transform="translate(0.000,0.000)" style="opacity: 1;"><rect class="node-rect" width="20" height="2.8751438219438796" style="stroke-width: 0.5; stroke: rgb(68, 68, 68); stroke-opacity: 1; fill: rgb(99, 110, 250); fill-opacity: 0.8;"/><text class="node-label" data-notex="1" x="0" y="0" text-anchor="start" transform="translate(23.25,5.637571910971939)" style="cursor: default; font-family: 'Open Sans', verdana, arial, sans-serif; font-size: 12px; fill: rgb(42, 63, 95); fill-opacity: 1; text-shadow: rgb(255, 255, 255) 1px 1px 1px, rgb(255, 255, 255) -1px -1px 1px, rgb(255, 255, 255) 1px -1px 1px, rgb(255, 255, 255) -1px 1px 1px; white-space: pre;">Tecnologias</text></g><g class="sankey-node" transform="translate(910.000,20.000)" style="opacity: 1;"><rect class="node-rect" width="20" height="70.12353541620203" style="stroke-width: 0.5; stroke: rgb(68, 68, 68); stroke-opacity: 1; fill: rgb(239, 85, 59); fill-opacity: 0.8;"/><text class="node-label" data-notex="1" x="0" y="0" text-anchor="end" transform="translate(-3.25,39.26176770810102)" style="cursor: default; font-family: 'Open Sans', verdana, arial, sans-serif; font-size: 12px; fill: rgb(42, 63, 95); fill-opacity: 1; text-shadow: rgb(255, 255, 255) 1px 1px 1px, rgb(255, 255, 255) -1px -1px 1px, rgb(255, 255, 255) 1px -1px 1px, rgb(255, 255, 255) -1px 1px 1px; white-space: pre;">Carreira - Produtividade</text></g><g class="sankey-node" transform="translate(910.000,409.885)" style="opacity: 1;"><rect class="node-rect" width="20" height="23.795624226287032" style="stroke-width: 0.5; stroke: rgb(68, 68, 68); stroke-opacity: 1; fill: rgb(0, 204, 150); fill-opacity: 0.8;"/><text class="node-label" data-notex="1" x="0" y="0" text-anchor="end" transform="translate(-3.25,16.097812113143515)" style="cursor: default; font-family: 'Open Sans', verdana, arial, sans-serif; font-size: 12px; fill: rgb(42, 63, 95); fill-opacity: 1; text-shadow: rgb(255, 255, 255) 1px 1px 1px, rgb(255, 255, 255) -1px -1px 1px, rgb(255, 255, 255) 1px -1px 1px, rgb(255, 255, 255) -1px 1px 1px; white-space: pre;">Carreira - Pós-Doutorado</text></g><g class="sankey-node" transform="translate(910.000,110.124)" style="opacity: 1;"><rect class="node-rect" width="20" height="58.42668904101836" style="stroke-width: 0.5; stroke: rgb(68, 68, 68); stroke-opacity: 1; fill: rgb(171, 99, 250); fill-opacity: 0.8;"/><text class="node-label" data-notex="1" x="0" y="0" text-anchor="end" transform="translate(-3.25,33.413344520509185)" style="cursor: default; font-family: 'Open Sans', verdana, arial, sans-serif; font-size: 12px; fill: rgb(42, 63, 95); fill-opacity: 1; text-shadow: rgb(255, 255, 255) 1px 1px 1px, rgb(255, 255, 255) -1px -1px 1px, rgb(255, 255, 255) 1px -1px 1px, rgb(255, 255, 255) -1px 1px 1px; white-space: pre;">Formação - Doutorado</text></g><g class="sankey-node" transform="translate(910.000,188.550)" style="opacity: 1;"><rect class="node-rect" width="20" height="35.81360454180543" style="stroke-width: 0.5; stroke: rgb(68, 68, 68); stroke-opacity: 1; fill: rgb(255, 161, 90); fill-opacity: 0.8;"/><text class="node-label" data-notex="1" x="0" y="0" text-anchor="end" transform="translate(-3.25,22.106802270902715)" style="cursor: default; font-family: 'Open Sans', verdana, arial, sans-serif; font-size: 12px; fill: rgb(42, 63, 95); fill-opacity: 1; text-shadow: rgb(255, 255, 255) 1px 1px 1px, rgb(255, 255, 255) -1px -1px 1px, rgb(255, 255, 255) 1px -1px 1px, rgb(255, 255, 255) -1px 1px 1px; white-space: pre;">Formação - Iniciação Científica</text></g><g class="sankey-node" transform="translate(910.000,244.364)" style="opacity: 1;"><rect class="node-rect" width="20" height="32.81832948377621" style="stroke-width: 0.5; stroke: rgb(68, 68, 68); stroke-opacity: 1; fill: rgb(25, 211, 243); fill-opacity: 0.8;"/><text class="node-label" data-notex="1" x="0" y="0" text-anchor="end" transform="translate(-3.25,20.609164741888105)" style="cursor: default; font-family: 'Open Sans', verdana, arial, sans-serif; font-size: 12px; fill: rgb(42, 63, 95); fill-opacity: 1; text-shadow: rgb(255, 255, 255) 1px 1px 1px, rgb(255, 255, 255) -1px -1px 1px, rgb(255, 255, 255) 1px -1px 1px, rgb(255, 255, 255) -1px 1px 1px; white-space: pre;">Formação - Mestrado</text></g><g class="sankey-node" transform="translate(910.000,453.681)" style="opacity: 1;"><rect class="node-rect" width="20" height="13.421069013496663" style="stroke-width: 0.5; stroke: rgb(68, 68, 68); stroke-opacity: 1; fill: rgb(255, 102, 146); fill-opacity: 0.8;"/><text class="node-label" data-notex="1" x="0" y="0" text-anchor="end" transform="translate(-3.25,10.91053450674833)" style="cursor: default; font-family: 'Open Sans', verdana, arial, sans-serif; font-size: 12px; fill: rgb(42, 63, 95); fill-opacity: 1; text-shadow: rgb(255, 255, 255) 1px 1px 1px, rgb(255, 255, 255) -1px -1px 1px, rgb(255, 255, 255) 1px -1px 1px, rgb(255, 255, 255) -1px 1px 1px; white-space: pre;">Mobilidade - Doutorado - Exterior</text></g><g class="sankey-node" transform="translate(910.000,584.304)" style="opacity: 1;"><rect class="node-rect" width="20" height="35.69640708670374" style="stroke-width: 0.5; stroke: rgb(68, 68, 68); stroke-opacity: 1; fill: rgb(182, 232, 128); fill-opacity: 0.8;"/><text class="node-label" data-notex="1" x="0" y="0" text-anchor="end" transform="translate(-3.25,22.04820354335187)" style="cursor: default; font-family: 'Open Sans', verdana, arial, sans-serif; font-size: 12px; fill: rgb(42, 63, 95); fill-opacity: 1; text-shadow: rgb(255, 255, 255) 1px 1px 1px, rgb(255, 255, 255) -1px -1px 1px, rgb(255, 255, 255) 1px -1px 1px, rgb(255, 255, 255) -1px 1px 1px; white-space: pre;">Mobilidade - Exterior</text></g><g class="sankey-node" transform="translate(910.000,487.102)" style="opacity: 1;"><rect class="node-rect" width="20" height="38.21857790684987" style="stroke-width: 0.5; stroke: rgb(68, 68, 68); stroke-opacity: 1; fill: rgb(255, 151, 255); fill-opacity: 0.8;"/><text class="node-label" data-notex="1" x="0" y="0" text-anchor="end" transform="translate(-3.25,23.309288953424936)" style="cursor: default; font-family: 'Open Sans', verdana, arial, sans-serif; font-size: 12px; fill: rgb(42, 63, 95); fill-opacity: 1; text-shadow: rgb(255, 255, 255) 1px 1px 1px, rgb(255, 255, 255) -1px -1px 1px, rgb(255, 255, 255) 1px -1px 1px, rgb(255, 255, 255) -1px 1px 1px; white-space: pre;">Outros</text></g><g class="sankey-node" transform="translate(910.000,297.182)" style="opacity: 1;"><rect class="node-rect" width="20" height="92.70312706109445" style="stroke-width: 0.5; stroke: rgb(68, 68, 68); stroke-opacity: 1; fill: rgb(254, 203, 82); fill-opacity: 0.8;"/><text class="node-label" data-notex="1" x="0" y="0" text-anchor="end" transform="translate(-3.25,50.55156353054723)" style="cursor: default; font-family: 'Open Sans', verdana, arial, sans-serif; font-size: 12px; fill: rgb(42, 63, 95); fill-opacity: 1; text-shadow: rgb(255, 255, 255) 1px 1px 1px, rgb(255, 255, 255) -1px -1px 1px, rgb(255, 255, 255) 1px -1px 1px, rgb(255, 255, 255) -1px 1px 1px; white-space: pre;">Pesquisa - Auxílio à Pesquisa</text></g><g class="sankey-node" transform="translate(910.000,545.321)" style="opacity: 1;"><rect class="node-rect" width="20" height="18.983036222766145" style="stroke-width: 0.5; stroke: rgb(68, 68, 68); stroke-opacity: 1; fill: rgb(99, 110, 250); fill-opacity: 0.8;"/><text class="node-label" data-notex="1" x="0" y="0" text-anchor="end" transform="translate(-3.25,13.691518111383072)" style="cursor: default; font-family: 'Open Sans', verdana, arial, sans-serif; font-size: 12px; fill: rgb(42, 63, 95); fill-opacity: 1; text-shadow: rgb(255, 255, 255) 1px 1px 1px, rgb(255, 255, 255) -1px -1px 1px, rgb(255, 255, 255) 1px -1px 1px, rgb(255, 255, 255) -1px 1px 1px; white-space: pre;">Tecnologia - Desenvolvimento</text></g></g></g><defs id="topdefs-33513a"><g class="clips"/></defs><g class="layer-above"><g class="imagelayer"/><g class="shapelayer"/></g><g class="infolayer"><g class="g-gtitle"><text class="gtitle" x="60" y="50" text-anchor="start" dy="0em" style="opacity: 1; font-family: 'Open Sans', verdana, arial, sans-serif; font-size: 17px; fill: rgb(42, 63, 95); fill-opacity: 1; white-space: pre;">Investimento por Grande Área → Categoria por ano_referencia</text></g><g class="first-render"/></g><g class="menulayer"><g class="updatemenu-container" style="cursor: pointer;"><g class="updatemenu-header-group" transform="translate(13,100)"><g class="updatemenu-header" transform="translate(1,1)" style="pointer-events: all;"><rect class="updatemenu-item-rect" rx="2" ry="2" shape-rendering="crispEdges" x="0" y="0" width="131" height="33" style="stroke: rgb(190, 200, 217); stroke-opacity: 1; fill: rgb(255, 255, 255); fill-opacity: 1; stroke-width: 1px;"/><text class="updatemenu-item-text" text-anchor="start" data-notex="1" x="12" y="19.5" style="font-family: 'Open Sans', verdana, arial, sans-serif; font-size: 12px; fill: rgb(42, 63, 95); fill-opacity: 1; white-space: pre;">Todos os anos</text></g><text class="updatemenu-header-arrow" text-anchor="end" x="127" y="19.5" style="font-family: 'Open Sans', verdana, arial, sans-serif; font-size: 12px; fill: rgb(42, 63, 95); fill-opacity: 1;">▼</text></g><g class="updatemenu-dropdown-button-group" updatemenu-active-index="-1" style="pointer-events: all;"><rect class="scrollbox-bg" opacity="0" x="0" y="0" width="0" height="0" style="pointer-events: all;"/></g></g></g></svg>