<svg class="main-svg" xmlns="http://www.w3.org/2000/svg" xmlns:xlink="http://www.w3.org/1999/xlink" width="2400" height="1600" style="" viewBox="0 0 1200 800"><rect x="0" y="0" width="1200" height="800" style="fill: rgb(255, 255, 255); fill-opacity: 1;"/><defs id="defs-1512f7"><g class="clips"><clipPath id="clip1512f7xyplot" class="plotclip"><rect width="818" height="620"/></clipPath><clipPath class="axesclip" id="clip1512f7x"><rect x="80" y="0" width="818" height="800"/></clipPath><clipPath class="axesclip" id="clip1512f7y"><rect x="0" y="100" width="1200" height="620"/></clipPath><clipPath class="axesclip" id="clip1512f7xy"><rect x="80" y="100" width="818" height="620"/></clipPath></g><g class="gradients"/><g class="patterns"/></defs><g class="bglayer"><rect class="bg" x="80" y="100" width="818" height="620" style="fill: rgb(229, 236, 246); fill-opacity: 1; stroke-width: 0;"/></g><g class="layer-below"><g class="imagelayer"/><g class="shapelayer"/></g><g class="cartesianlayer"><g class="subplot xy"><g class="layer-subplot"><g class="shapelayer"/><g class="imagelayer"/></g><g class="minor-gridlayer"><g class="x"/><g class="y"/></g><g class="gridlayer"><g class="x"><path class="xgrid crisp" transform="translate(118.95,0)" d="M0,100v620" style="stroke: rgb(255, 255, 255); stroke-opacity: 1; stroke-width: 1px;"/><path class="xgrid crisp" transform="translate(157.9,0)" d="M0,100v620" style="stroke: rgb(255, 255, 255); stroke-opacity: 1; stroke-width: 1px;"/><path class="xgrid crisp" transform="translate(196.86,0)" d="M0,100v620" style="stroke: rgb(255, 255, 255); stroke-opacity: 1; stroke-width: 1px;"/><path class="xgrid crisp" transform="translate(235.81,0)" d="M0,100v620" style="stroke: rgb(255, 255, 255); stroke-opacity: 1; stroke-width: 1px;"/><path class="xgrid crisp" transform="translate(274.76,0)" d="M0,100v620" style="stroke: rgb(255, 255, 255); stroke-opacity: 1; stroke-width: 1px;"/><path class="xgrid crisp" transform="translate(313.71000000000004,0)" d="M0,100v620" style="stroke: rgb(255, 255, 255); stroke-opacity: 1; stroke-width: 1px;"/><path class="xgrid crisp" transform="translate(352.67,0)" d="M0,100v620" style="stroke: rgb(255, 255, 255); stroke-opacity: 1; stroke-width: 1px;"/><path class="xgrid crisp" transform="translate(391.62,0)" d="M0,100v620" style="stroke: rgb(255, 255, 255); stroke-opacity: 1; stroke-width: 1px;"/><path class="xgrid crisp" transform="translate(430.57,0)" d="M0,100v620" style="stroke: rgb(255, 255, 255); stroke-opacity: 1; stroke-width: 1px;"/><path class="xgrid crisp" transform="translate(469.52,0)" d="M0,100v620" style="stroke: rgb(255, 255, 255); stroke-opacity: 1; stroke-width: 1px;"/><path class="xgrid crisp" transform="translate(508.48,0)" d="M0,100v620" style="stroke: rgb(255, 255, 255); stroke-opacity: 1; stroke-width: 1px;"/><path class="xgrid crisp" transform="translate(547.4300000000001,0)" d="M0,100v620" style="stroke: rgb(255, 255, 255); stroke-opacity: 1; stroke-width: 1px;"/><path class="xgrid crisp" transform="translate(586.38,0)" d="M0,100v620" style="stroke: rgb(255, 255, 255); stroke-opacity: 1; stroke-width: 1px;"/><path class="xgrid crisp" transform="translate(625.33,0)" d="M0,100v620" style="stroke: rgb(255, 255, 255); stroke-opacity: 1; stroke-width: 1px;"/><path class="xgrid crisp" transform="translate(664.29,0)" d="M0,100v620" style="stroke: rgb(255, 255, 255); stroke-opacity: 1; stroke-width: 1px;"/><path class="xgrid crisp" transform="translate(703.24,0)" d="M0,100v620" style="stroke: rgb(255, 255, 255); stroke-opacity: 1; stroke-width: 1px;"/><path class="xgrid crisp" transform="translate(742.19,0)" d="M0,100v620" style="stroke: rgb(255, 255, 255); stroke-opacity: 1; stroke-width: 1px;"/><path class="xgrid crisp" transform="translate(781.14,0)" d="M0,100v620" style="stroke: rgb(255, 255, 255); stroke-opacity: 1; stroke-width: 1px;"/><path class="xgrid crisp" transform="translate(820.1,0)" d="M0,100v620" style="stroke: rgb(255, 255, 255); stroke-opacity: 1; stroke-width: 1px;"/><path class="xgrid crisp" transform="translate(859.05,0)" d="M0,100v620" style="stroke: rgb(255, 255, 255); stroke-opacity: 1; stroke-width: 1px;"/></g><g class="y"><path class="ygrid crisp" transform="translate(0,683.09)" d="M80,0h818" style="stroke: rgb(255, 255, 255); stroke-opacity: 1; stroke-width: 1px;"/><path class="ygrid crisp" transform="translate(0,592.06)" d="M80,0h818" style="stroke: rgb(255, 255, 255); stroke-opacity: 1; stroke-width: 1px;"/><path class="ygrid crisp" transform="translate(0,501.03)" d="M80,0h818" style="stroke: rgb(255, 255, 255); stroke-opacity: 1; stroke-width: 1px;"/><path class="ygrid crisp" transform="translate(0,318.97)" d="M80,0h818" style="stroke: rgb(255, 255, 255); stroke-opacity: 1; stroke-width: 1px;"/><path class="ygrid crisp" transform="translate(0,227.94)" d="M80,0h818" style="stroke: rgb(255, 255, 255); stroke-opacity: 1; stroke-width: 1px;"/><path class="ygrid crisp" transform="translate(0,136.91)" d="M80,0h818" style="stroke: rgb(255, 255, 255); stroke-opacity: 1; stroke-width: 1px;"/></g></g><g class="zerolinelayer"><path class="yzl zl crisp" transform="translate(0,410)" d="M80,0h818" style="stroke: rgb(255, 255, 255); stroke-opacity: 1; stroke-width: 2px;"/></g><g class="layer-between"><g class="shapelayer"/><g class="imagelayer"/></g><path class="xlines-below"/><path class="ylines-below"/><g class="overlines-below"/><g class="xaxislayer-below"/><g class="yaxislayer-below"/><g class="overaxes-below"/><g class="overplot"><g class="xy" transform="translate(80,100)" clip-path="url(#clip1512f7xyplot)"><g class="scatterlayer mlayer"><g class="trace scatter trace8e85de" style="stroke-miterlimit: 2;"><g class="fills"><g><path class="js-fill" d="M0,333.17L38.95,347.21L77.9,350.31L116.86,360.3L155.81,393.53L194.76,405.31L233.71,418.64L272.67,446.19L311.62,437.75L350.57,469.45L389.52,516.76L428.48,589L467.43,543.83L506.38,492.88L545.33,439.27L584.29,437.12L623.24,428.85L662.19,423.16L701.14,412.75L740.1,459.41L779.05,521.44L818,508.87L818,463.4L779.05,470.54L740.1,425.01L701.14,387.67L662.19,395.52L623.24,397.02L584.29,402.06L545.33,404.47L467.43,493.75L428.48,532.45L389.52,467.83L350.57,424.8L311.62,393.25L272.67,400.39L233.71,379.26L194.76,377.6L155.81,374.03L116.86,347.1L77.9,339.13L38.95,336.83L0,326.81Z" style="fill: rgb(230, 159, 0); fill-opacity: 0.6; stroke-width: 0;"/></g></g><g class="errorbars"/><g class="lines"><path class="js-line" d="M0,326.81L38.95,336.83L77.9,339.13L116.86,347.1L155.81,374.03L194.76,377.6L233.71,379.26L272.67,400.39L311.62,393.25L350.57,424.8L389.52,467.83L428.48,532.45L467.43,493.75L545.33,404.47L584.29,402.06L623.24,397.02L662.19,395.52L701.14,387.67L740.1,425.01L779.05,470.54L818,463.4" style="vector-effect: none; fill: none; stroke: rgb(230, 159, 0); stroke-opacity: 1; stroke-width: 0.5px; opacity: 1;"/></g><g class="points"/><g class="text"/></g><g class="trace scatter trace0d73b2" style="stroke-miterlimit: 2;"><g class="fills"/><g class="errorbars"/><g class="lines"><path class="js-line" d="M0,333.17L38.95,347.21L77.9,350.31L116.86,360.3L155.81,393.53L194.76,405.31L233.71,418.64L272.67,446.19L311.62,437.75L350.57,469.45L389.52,516.76L428.48,589L467.43,543.83L506.38,492.88L545.33,439.27L584.29,437.12L623.24,428.85L662.19,423.16L701.14,412.75L740.1,459.41L779.05,521.44L818,508.87" style="vector-effect: none; fill: none; stroke: rgb(230, 159, 0); stroke-opacity: 1; stroke-width: 0.5px; opacity: 1;"/></g><g class="points"/><g class="text"/></g><g class="trace scatter trace1ecf41" style="stroke-miterlimit: 2;"><g class="fills"><g><path class="js-fill" d="M0,326.81L38.95,336.83L77.9,339.13L116.86,347.1L155.81,374.03L194.76,377.6L233.71,379.26L272.67,400.39L311.62,393.25L350.57,424.8L389.52,467.83L428.48,532.45L467.43,493.75L545.33,404.47L584.29,402.06L623.24,397.02L662.19,395.52L701.14,387.67L740.1,425.01L779.05,470.54L818,463.4L818,385.85L779.05,383.23L740.1,364.31L701.14,351.02L662.19,350.13L623.24,353.79L584.29,356.1L545.33,360.75L506.38,387.1L467.43,426.21L428.48,453.45L389.52,400.37L350.57,369.11L311.62,347.62L272.67,349.54L233.71,338.65L194.76,337.23L155.81,341.81L116.86,328.51L77.9,324.03L38.95,322.81L0,318.22Z" style="fill: rgb(86, 180, 233); fill-opacity: 0.6; stroke-width: 0;"/></g></g><g class="errorbars"/><g class="lines"><path class="js-line" d="M0,318.22L38.95,322.81L77.9,324.03L116.86,328.51L155.81,341.81L194.76,337.23L233.71,338.65L272.67,349.54L311.62,347.62L350.57,369.11L389.52,400.37L428.48,453.45L467.43,426.21L506.38,387.1L545.33,360.75L584.29,356.1L623.24,353.79L662.19,350.13L701.14,351.02L740.1,364.31L779.05,383.23L818,385.85" style="vector-effect: none; fill: none; stroke: rgb(86, 180, 233); stroke-opacity: 1; stroke-width: 0.5px; opacity: 1;"/></g><g class="points"/><g class="text"/></g><g class="trace scatter trace2ee5cc" style="stroke-miterlimit: 2;"><g class="fills"/><g class="errorbars"/><g class="lines"><path class="js-line" d="M0,326.81L38.95,336.83L77.9,339.13L116.86,347.1L155.81,374.03L194.76,377.6L233.71,379.26L272.67,400.39L311.62,393.25L350.57,424.8L389.52,467.83L428.48,532.45L467.43,493.75L545.33,404.47L584.29,402.06L623.24,397.02L662.19,395.52L701.14,387.67L740.1,425.01L779.05,470.54L818,463.4" style="vector-effect: none; fill: none; stroke: rgb(86, 180, 233); stroke-opacity: 1; stroke-width: 0.5px; opacity: 1;"/></g><g class="points"/><g class="text"/></g><g class="trace scatter trace3722e0" style="stroke-miterlimit: 2;"><g class="fills"><g><path class="js-fill" d="M0,318.22L38.95,322.81L77.9,324.03L116.86,328.51L155.81,341.81L194.76,337.23L233.71,338.65L272.67,349.54L311.62,347.62L350.57,369.11L389.52,400.37L428.48,453.45L467.43,426.21L506.38,387.1L545.33,360.75L584.29,356.1L623.24,353.79L662.19,350.13L701.14,351.02L740.1,364.31L779.05,383.23L818,385.85L818,320.1L779.05,335.87L740.1,323.39L701.14,318.83L662.19,314.45L623.24,320.67L584.29,324.22L545.33,331.99L506.38,345.67L467.43,368.45L428.48,386.9L389.52,354.5L350.57,334.54L311.62,320.29L272.67,319.95L233.71,315.21L194.76,315.07L155.81,318.75L116.86,320.2L77.9,317.58L38.95,316.93L0,314.47Z" style="fill: rgb(0, 158, 115); fill-opacity: 0.6; stroke-width: 0;"/></g></g><g class="errorbars"/><g class="lines"><path class="js-line" d="M0,314.47L38.95,316.93L77.9,317.58L116.86,320.2L155.81,318.75L194.76,315.07L233.71,315.21L272.67,319.95L311.62,320.29L350.57,334.54L389.52,354.5L428.48,386.9L467.43,368.45L506.38,345.67L545.33,331.99L584.29,324.22L623.24,320.67L662.19,314.45L701.14,318.83L740.1,323.39L779.05,335.87L818,320.1" style="vector-effect: none; fill: none; stroke: rgb(0, 158, 115); stroke-opacity: 1; stroke-width: 0.5px; opacity: 1;"/></g><g class="points"/><g class="text"/></g><g class="trace scatter trace84eba6" style="stroke-miterlimit: 2;"><g class="fills"/><g class="errorbars"/><g class="lines"><path class="js-line" d="M0,318.22L38.95,322.81L77.9,324.03L116.86,328.51L155.81,341.81L194.76,337.23L233.71,338.65L272.67,349.54L311.62,347.62L350.57,369.11L389.52,400.37L428.48,453.45L467.43,426.21L506.38,387.1L545.33,360.75L584.29,356.1L623.24,353.79L662.19,350.13L701.14,351.02L740.1,364.31L779.05,383.23L818,385.85" style="vector-effect: none; fill: none; stroke: rgb(0, 158, 115); stroke-opacity: 1; stroke-width: 0.5px; opacity: 1;"/></g><g class="points"/><g class="text"/></g><g class="trace scatter tracec74a00" style="stroke-miterlimit: 2;"><g class="fills"><g><path class="js-fill" d="M0,314.47L38.95,316.93L77.9,317.58L116.86,320.2L155.81,318.75L194.76,315.07L233.71,315.21L272.67,319.95L311.62,320.29L350.57,334.54L389.52,354.5L428.48,386.9L467.43,368.45L506.38,345.67L545.33,331.99L584.29,324.22L623.24,320.67L662.19,314.45L701.14,318.83L740.1,323.39L779.05,335.87L818,320.1L818,244.83L779.05,248.68L740.1,268.97L701.14,283.24L662.19,273.24L623.24,274.83L584.29,273.82L545.33,278.92L506.38,275.88L467.43,282.96L428.48,288.09L389.52,276.84L350.57,271.23L311.62,270.05L272.67,265.57L233.71,272.29L194.76,276.15L155.81,285.55L116.86,297.51L77.9,299.51L38.95,300.11L0,304.24Z" style="fill: rgb(240, 228, 66); fill-opacity: 0.6; stroke-width: 0;"/></g></g><g class="errorbars"/><g class="lines"><path class="js-line" d="M0,304.24L38.95,300.11L77.9,299.51L116.86,297.51L155.81,285.55L194.76,276.15L233.71,272.29L272.67,265.57L311.62,270.05L350.57,271.23L389.52,276.84L428.48,288.09L467.43,282.96L506.38,275.88L545.33,278.92L584.29,273.82L623.24,274.83L662.19,273.24L701.14,283.24L740.1,268.97L779.05,248.68L818,244.83" style="vector-effect: none; fill: none; stroke: rgb(240, 228, 66); stroke-opacity: 1; stroke-width: 0.5px; opacity: 1;"/></g><g class="points"/><g class="text"/></g><g class="trace scatter trace096442" style="stroke-miterlimit: 2;"><g class="fills"/><g class="errorbars"/><g class="lines"><path class="js-line" d="M0,314.47L38.95,316.93L77.9,317.58L116.86,320.2L155.81,318.75L194.76,315.07L233.71,315.21L272.67,319.95L311.62,320.29L350.57,334.54L389.52,354.5L428.48,386.9L467.43,368.45L506.38,345.67L545.33,331.99L584.29,324.22L623.24,320.67L662.19,314.45L701.14,318.83L740.1,323.39L779.05,335.87L818,320.1" style="vector-effect: none; fill: none; stroke: rgb(240, 228, 66); stroke-opacity: 1; stroke-width: 0.5px; opacity: 1;"/></g><g class="points"/><g class="text"/></g><g class="trace scatter trace28f537" style="stroke-miterlimit: 2;"><g class="fills"><g><path class="js-fill" d="M0,304.24L38.95,300.11L77.9,299.51L116.86,297.51L155.81,285.55L194.76,276.15L233.71,272.29L272.67,265.57L311.62,270.05L350.57,271.23L389.52,276.84L428.48,288.09L467.43,282.96L506.38,275.88L545.33,278.92L584.29,273.82L623.24,274.83L662.19,273.24L701.14,283.24L740.1,268.97L779.05,248.68L818,244.83L818,205.58L779.05,212.78L740.1,241.17L701.14,262.38L662.19,250.56L623.24,249.36L584.29,246.7L545.33,251.95L506.38,245.99L467.43,249.48L428.48,256.41L389.52,244.24L350.57,243.62L311.62,244.23L272.67,239.28L233.71,251.48L194.76,258.15L155.81,270.28L116.86,285.62L77.9,289.62L38.95,290.72L0,297.78Z" style="fill: rgb(0, 114, 178); fill-opacity: 0.6; stroke-width: 0;"/></g></g><g class="errorbars"/><g class="lines"><path class="js-line" d="M0,297.78L38.95,290.72L77.9,289.62L116.86,285.62L155.81,270.28L194.76,258.15L233.71,251.48L272.67,239.28L311.62,244.23L350.57,243.62L389.52,244.24L428.48,256.41L467.43,249.48L506.38,245.99L545.33,251.95L584.29,246.7L623.24,249.36L662.19,250.56L701.14,262.38L740.1,241.17L779.05,212.78L818,205.58" style="vector-effect: none; fill: none; stroke: rgb(0, 114, 178); stroke-opacity: 1; stroke-width: 0.5px; opacity: 1;"/></g><g class="points"/><g class="text"/></g><g class="trace scatter trace3b0bdb" style="stroke-miterlimit: 2;"><g class="fills"/><g class="errorbars"/><g class="lines"><path class="js-line" d="M0,304.24L38.95,300.11L77.9,299.51L116.86,297.51L155.81,285.55L194.76,276.15L233.71,272.29L272.67,265.57L311.62,270.05L350.57,271.23L389.52,276.84L428.48,288.09L467.43,282.96L506.38,275.88L545.33,278.92L584.29,273.82L623.24,274.83L662.19,273.24L701.14,283.24L740.1,268.97L779.05,248.68L818,244.83" style="vector-effect: none; fill: none; stroke: rgb(0, 114, 178); stroke-opacity: 1; stroke-width: 0.5px; opacity: 1;"/></g><g class="points"/><g class="text"/></g><g class="trace scatter trace020eeb" style="stroke-miterlimit: 2;"><g class="fills"><g><path class="js-fill" d="M0,297.78L38.95,290.72L77.9,289.62L116.86,285.62L155.81,270.28L194.76,258.15L233.71,251.48L272.67,239.28L311.62,244.23L350.57,243.62L389.52,244.24L428.48,256.41L467.43,249.48L506.38,245.99L545.33,251.95L584.29,246.7L623.24,249.36L662.19,250.56L701.14,262.38L740.1,241.17L779.05,212.78L818,205.58L818,177.5L779.05,185.11L740.1,227.13L701.14,251.33L662.19,237.05L623.24,233.6L584.29,232.55L545.33,238.27L506.38,221.13L467.43,206.9L428.48,205.23L389.52,210.47L350.57,224.19L311.62,231.9L272.67,226.8L233.71,241.42L194.76,249.33L155.81,262.44L116.86,280.01L77.9,284.83L38.95,286.22L0,295.01Z" style="fill: rgb(213, 94, 0); fill-opacity: 0.6; stroke-width: 0;"/></g></g><g class="errorbars"/><g class="lines"><path class="js-line" d="M0,295.01L38.95,286.22L77.9,284.83L116.86,280.01L155.81,262.44L194.76,249.33L233.71,241.42L272.67,226.8L311.62,231.9L350.57,224.19L389.52,210.47L428.48,205.23L467.43,206.9L506.38,221.13L545.33,238.27L584.29,232.55L623.24,233.6L662.19,237.05L701.14,251.33L740.1,227.13L779.05,185.11L818,177.5" style="vector-effect: none; fill: none; stroke: rgb(213, 94, 0); stroke-opacity: 1; stroke-width: 0.5px; opacity: 1;"/></g><g class="points"/><g class="text"/></g><g class="trace scatter traceeb3fea" style="stroke-miterlimit: 2;"><g class="fills"/><g class="errorbars"/><g class="lines"><path class="js-line" d="M0,297.78L38.95,290.72L77.9,289.62L116.86,285.62L155.81,270.28L194.76,258.15L233.71,251.48L272.67,239.28L311.62,244.23L350.57,243.62L389.52,244.24L428.48,256.41L467.43,249.48L506.38,245.99L545.33,251.95L584.29,246.7L623.24,249.36L662.19,250.56L701.14,262.38L740.1,241.17L779.05,212.78L818,205.58" style="vector-effect: none; fill: none; stroke: rgb(213, 94, 0); stroke-opacity: 1; stroke-width: 0.5px; opacity: 1;"/></g><g class="points"/><g class="text"/></g><g class="trace scatter trace97ea6c" style="stroke-miterlimit: 2;"><g class="fills"><g><path class="js-fill" d="M0,295.01L38.95,286.22L77.9,284.83L116.86,280.01L155.81,262.44L194.76,249.33L233.71,241.42L272.67,226.8L311.62,231.9L350.57,224.19L389.52,210.47L428.48,205.23L467.43,206.9L506.38,221.13L545.33,238.27L584.29,232.55L623.24,233.6L662.19,237.05L701.14,251.33L740.1,227.13L779.05,185.11L818,177.5L818,122.91L779.05,116.06L740.1,174.79L701.14,213.43L662.19,204.09L623.24,198.62L584.29,191.32L545.33,189.31L506.38,139.21L467.43,91.6L428.48,50.47L389.52,119.72L350.57,162.97L311.62,192.11L272.67,185.07L233.71,207.49L194.76,219.59L155.81,230.09L116.86,261.71L77.9,270.81L38.95,273.66L0,287.11Z" style="fill: rgb(204, 121, 167); fill-opacity: 0.6; stroke-width: 0;"/></g></g><g class="errorbars"/><g class="lines"><path class="js-line" d="M0,287.11L38.95,273.66L77.9,270.81L116.86,261.71L155.81,230.09L194.76,219.59L233.71,207.49L272.67,185.07L311.62,192.11L350.57,162.97L389.52,119.72L428.48,50.47L467.43,91.6L506.38,139.21L545.33,189.31L584.29,191.32L623.24,198.62L662.19,204.09L701.14,213.43L740.1,174.79L779.05,116.06L818,122.91" style="vector-effect: none; fill: none; stroke: rgb(204, 121, 167); stroke-opacity: 1; stroke-width: 0.5px; opacity: 1;"/></g><g class="points"/><g class="text"/></g><g class="trace scatter tracec8aca2" style="stroke-miterlimit: 2;"><g class="fills"/><g class="errorbars"/><g class="lines"><path class="js-line" d="M0,295.01L38.95,286.22L77.9,284.83L116.86,280.01L155.81,262.44L194.76,249.33L233.71,241.42L272.67,226.8L311.62,231.9L350.57,224.19L389.52,210.47L428.48,205.23L467.43,206.9L506.38,221.13L545.33,238.27L584.29,232.55L623.24,233.6L662.19,237.05L701.14,251.33L740.1,227.13L779.05,185.11L818,177.5" style="vector-effect: none; fill: none; stroke: rgb(204, 121, 167); stroke-opacity: 1; stroke-width: 0.5px; opacity: 1;"/></g><g class="points"/><g class="text"/></g><g class="trace scatter trace1da1ac" style="stroke-miterlimit: 2;"><g class="fills"><g><path class="js-fill" d="M0,287.11L38.95,273.66L77.9,270.81L116.86,261.71L155.81,230.09L194.76,219.59L233.71,207.49L272.67,185.07L311.62,192.11L350.57,162.97L389.52,119.72L428.48,50.47L467.43,91.6L506.38,139.21L545.33,189.31L584.29,191.32L623.24,198.62L662.19,204.09L701.14,213.43L740.1,174.79L779.05,116.06L818,122.91L818,111.13L779.05,98.56L740.1,160.59L701.14,207.25L662.19,196.84L623.24,191.15L584.29,182.88L545.33,180.73L506.38,127.12L467.43,76.17L428.48,31L389.52,103.24L350.57,150.55L311.62,182.25L272.67,173.81L233.71,201.36L194.76,214.69L155.81,226.47L116.86,259.7L77.9,269.69L38.95,272.79L0,286.83Z" style="fill: rgb(0, 0, 0); fill-opacity: 0.6; stroke-width: 0;"/></g></g><g class="errorbars"/><g class="lines"><path class="js-line" d="M0,286.83L38.95,272.79L77.9,269.69L116.86,259.7L155.81,226.47L194.76,214.69L233.71,201.36L272.67,173.81L311.62,182.25L350.57,150.55L389.52,103.24L428.48,31L467.43,76.17L506.38,127.12L545.33,180.73L584.29,182.88L623.24,191.15L662.19,196.84L701.14,207.25L740.1,160.59L779.05,98.56L818,111.13" style="vector-effect: none; fill: none; stroke: rgb(0, 0, 0); stroke-opacity: 1; stroke-width: 0.5px; opacity: 1;"/></g><g class="points"/><g class="text"/></g><g class="trace scatter trace106bd0" style="stroke-miterlimit: 2;"><g class="fills"/><g class="errorbars"/><g class="lines"><path class="js-line" d="M0,287.11L38.95,273.66L77.9,270.81L116.86,261.71L155.81,230.09L194.76,219.59L233.71,207.49L272.67,185.07L311.62,192.11L350.57,162.97L389.52,119.72L428.48,50.47L467.43,91.6L506.38,139.21L545.33,189.31L584.29,191.32L623.24,198.62L662.19,204.09L701.14,213.43L740.1,174.79L779.05,116.06L818,122.91" style="vector-effect: none; fill: none; stroke: rgb(0, 0, 0); stroke-opacity: 1; stroke-width: 0.5px; opacity: 1;"/></g><g class="points"/><g class="text"/></g></g></g></g><g class="zerolinelayer-above"/><path class="xlines-above crisp" d="M0,0" style="fill: none;"/><path class="ylines-above crisp" d="M0,0" style="fill: none;"/><g class="overlines-above"/><g class="xaxislayer-above"><g class="xtick"><text text-anchor="middle" x="0" y="733" transform="translate(80,0)" style="font-family: 'Open Sans', verdana, arial, sans-serif; font-size: 12px; fill: rgb(42, 63, 95); fill-opacity: 1; white-space: pre;">2003</text></g><g class="xtick"><text text-anchor="middle" x="0" y="733" style="font-family: 'Open Sans', verdana, arial, sans-serif; font-size: 12px; fill: rgb(42, 63, 95); fill-opacity: 1; white-space: pre;" transform="translate(118.95,0)">2004</text></g><g class="xtick"><text text-anchor="middle" x="0" y="733" style="font-family: 'Open Sans', verdana, arial, sans-serif; font-size: 12px; fill: rgb(42, 63, 95); fill-opacity: 1; white-space: pre;" transform="translate(157.9,0)">2005</text></g><g class="xtick"><text text-anchor="middle" x="0" y="733" style="font-family: 'Open Sans', verdana, arial, sans-serif; font-size: 12px; fill: rgb(42, 63, 95); fill-opacity: 1; white-space: pre;" transform="translate(196.86,0)">2006</text></g><g class="xtick"><text text-anchor="middle" x="0" y="733" style="font-family: 'Open Sans', verdana, arial, sans-serif; font-size: 12px; fill: rgb(42, 63, 95); fill-opacity: 1; white-space: pre;" transform="translate(235.81,0)">2007</text></g><g class="xtick"><text text-anchor="middle" x="0" y="733" style="font-family: 'Open Sans', verdana, arial, sans-serif; font-size: 12px; fill: rgb(42, 63, 95); fill-opacity: 1; white-space: pre;" transform="translate(274.76,0)">2008</text></g><g class="xtick"><text text-anchor="middle" x="0" y="733" style="font-family: 'Open Sans', verdana, arial, sans-serif; font-size: 12px; fill: rgb(42, 63, 95); fill-opacity: 1; white-space: pre;" transform="translate(313.71000000000004,0)">2009</text></g><g class="xtick"><text text-anchor="middle" x="0" y="733" style="font-family: 'Open Sans', verdana, arial, sans-serif; font-size: 12px; fill: rgb(42, 63, 95); fill-opacity: 1; white-space: pre;" transform="translate(352.67,0)">2010</text></g><g class="xtick"><text text-anchor="middle" x="0" y="733" style="font-family: 'Open Sans', verdana, arial, sans-serif; font-size: 12px; fill: rgb(42, 63, 95); fill-opacity: 1; white-space: pre;" transform="translate(391.62,0)">2011</text></g><g class="xtick"><text text-anchor="middle" x="0" y="733" style="font-family: 'Open Sans', verdana, arial, sans-serif; font-size: 12px; fill: rgb(42, 63, 95); fill-opacity: 1; white-space: pre;" transform="translate(430.57,0)">2012</text></g><g class="xtick"><text text-anchor="middle" x="0" y="733" style="font-family: 'Open Sans', verdana, arial, sans-serif; font-size: 12px; fill: rgb(42, 63, 95); fill-opacity: 1; white-space: pre;" transform="translate(469.52,0)">2013</text></g><g class="xtick"><text text-anchor="middle" x="0" y="733" style="font-family: 'Open Sans', verdana, arial, sans-serif; font-size: 12px; fill: rgb(42, 63, 95); fill-opacity: 1; white-space: pre;" transform="translate(508.48,0)">2014</text></g><g class="xtick"><text text-anchor="middle" x="0" y="733" style="font-family: 'Open Sans', verdana, arial, sans-serif; font-size: 12px; fill: rgb(42, 63, 95); fill-opacity: 1; white-space: pre;" transform="translate(547.4300000000001,0)">2015</text></g><g class="xtick"><text text-anchor="middle" x="0" y="733" style="font-family: 'Open Sans', verdana, arial, sans-serif; font-size: 12px; fill: rgb(42, 63, 95); fill-opacity: 1; white-space: pre;" transform="translate(586.38,0)">2016</text></g><g class="xtick"><text text-anchor="middle" x="0" y="733" style="font-family: 'Open Sans', verdana, arial, sans-serif; font-size: 12px; fill: rgb(42, 63, 95); fill-opacity: 1; white-space: pre;" transform="translate(625.33,0)">2017</text></g><g class="xtick"><text text-anchor="middle" x="0" y="733" style="font-family: 'Open Sans', verdana, arial, sans-serif; font-size: 12px; fill: rgb(42, 63, 95); fill-opacity: 1; white-space: pre;" transform="translate(664.29,0)">2018</text></g><g class="xtick"><text text-anchor="middle" x="0" y="733" style="font-family: 'Open Sans', verdana, arial, sans-serif; font-size: 12px; fill: rgb(42, 63, 95); fill-opacity: 1; white-space: pre;" transform="translate(703.24,0)">2019</text></g><g class="xtick"><text text-anchor="middle" x="0" y="733" style="font-family: 'Open Sans', verdana, arial, sans-serif; font-size: 12px; fill: rgb(42, 63, 95); fill-opacity: 1; white-space: pre;" transform="translate(742.19,0)">2020</text></g><g class="xtick"><text text-anchor="middle" x="0" y="733" style="font-family: 'Open Sans', verdana, arial, sans-serif; font-size: 12px; fill: rgb(42, 63, 95); fill-opacity: 1; white-space: pre;" transform="translate(781.14,0)">2021</text></g><g class="xtick"><text text-anchor="middle" x="0" y="733" style="font-family: 'Open Sans', verdana, arial, sans-serif; font-size: 12px; fill: rgb(42, 63, 95); fill-opacity: 1; white-space: pre;" transform="translate(820.1,0)">2022</text></g><g class="xtick"><text text-anchor="middle" x="0" y="733" style="font-family: 'Open Sans', verdana, arial, sans-serif; font-size: 12px; fill: rgb(42, 63, 95); fill-opacity: 1; white-space: pre;" transform="translate(859.05,0)">2023</text></g><g class="xtick"><text text-anchor="middle" x="0" y="733" style="font-family: 'Open Sans', verdana, arial, sans-serif; font-size: 12px; fill: rgb(42, 63, 95); fill-opacity: 1; white-space: pre;" transform="translate(898,0)">2024</text></g></g><g class="yaxislayer-above"><g class="ytick"><text text-anchor="end" x="79" y="4.199999999999999" transform="translate(0,683.09)" style="font-family: 'Open Sans', verdana, arial, sans-serif; font-size: 12px; fill: rgb(42, 63, 95); fill-opacity: 1; white-space: pre;">−1.5B</text></g><g class="ytick"><text text-anchor="end" x="79" y="4.199999999999999" style="font-family: 'Open Sans', verdana, arial, sans-serif; font-size: 12px; fill: rgb(42, 63, 95); fill-opacity: 1; white-space: pre;" transform="translate(0,592.06)">−1B</text></g><g class="ytick"><text text-anchor="end" x="79" y="4.199999999999999" style="font-family: 'Open Sans', verdana, arial, sans-serif; font-size: 12px; fill: rgb(42, 63, 95); fill-opacity: 1; white-space: pre;" transform="translate(0,501.03)">−0.5B</text></g><g class="ytick"><text text-anchor="end" x="79" y="4.199999999999999" style="font-family: 'Open Sans', verdana, arial, sans-serif; font-size: 12px; fill: rgb(42, 63, 95); fill-opacity: 1; white-space: pre;" transform="translate(0,410)">0</text></g><g class="ytick"><text text-anchor="end" x="79" y="4.199999999999999" style="font-family: 'Open Sans', verdana, arial, sans-serif; font-size: 12px; fill: rgb(42, 63, 95); fill-opacity: 1; white-space: pre;" transform="translate(0,318.97)">0.5B</text></g><g class="ytick"><text text-anchor="end" x="79" y="4.199999999999999" style="font-family: 'Open Sans', verdana, arial, sans-serif; font-size: 12px; fill: rgb(42, 63, 95); fill-opacity: 1; white-space: pre;" transform="translate(0,227.94)">1B</text></g><g class="ytick"><text text-anchor="end" x="79" y="4.199999999999999" style="font-family: 'Open Sans', verdana, arial, sans-serif; font-size: 12px; fill: rgb(42, 63, 95); fill-opacity: 1; white-space: pre;" transform="translate(0,136.91)">1.5B</text></g></g><g class="overaxes-above"/></g></g><g class="polarlayer"/><g class="smithlayer"/><g class="ternarylayer"/><g class="geolayer"/><g class="funnelarealayer"/><g class="pielayer"/><g class="iciclelayer"/><g class="treemaplayer"/><g class="sunburstlayer"/><g class="glimages"/><defs id="topdefs-1512f7"><g class="clips"/><clipPath id="legend1512f7"><rect width="274" height="236" x="0" y="0"/></clipPath></defs><g class="layer-above"><g class="imagelayer"/><g class="shapelayer"/></g><g class="infolayer"><g class="legend" pointer-events="all" transform="translate(914.36,100)"><rect class="bg" shape-rendering="crispEdges" style="stroke: rgb(68, 68, 68); stroke-opacity: 1; fill: rgb(255, 255, 255); fill-opacity: 1; stroke-width: 0px;" width="274" height="236" x="0" y="0"/><g class="scrollbox" transform="" clip-path="url(#legend1512f7)"><g class="groups" transform=""><g class="traces" transform="translate(0,16.9)" style="opacity: 1;"><text class="legendtext" text-anchor="start" x="50" y="6.24" style="font-family: 'Open Sans', verdana, arial, sans-serif; font-size: 16px; fill: rgb(42, 63, 95); fill-opacity: 1; white-space: pre;">Ciências Agrárias</text><g class="layers"><g class="legendfill"/><g class="legendlines"><path class="js-line" d="M5,0h40" style="fill: none; stroke: rgb(230, 159, 0); stroke-opacity: 1; stroke-width: 0.5px;"/></g><g class="legendsymbols"><g class="legendpoints"/></g></g><rect class="legendtoggle" x="0" y="-11.9" width="269" height="23.8" style="fill: rgb(0, 0, 0); fill-opacity: 0;"/></g></g><g class="groups" transform="translate(0,5)"><g class="traces" transform="translate(0,40.7)" style="opacity: 1;"><text class="legendtext" text-anchor="start" x="50" y="6.24" style="font-family: 'Open Sans', verdana, arial, sans-serif; font-size: 16px; fill: rgb(42, 63, 95); fill-opacity: 1; white-space: pre;">Ciências Biológicas</text><g class="layers"><g class="legendfill"/><g class="legendlines"><path class="js-line" d="M5,0h40" style="fill: none; stroke: rgb(86, 180, 233); stroke-opacity: 1; stroke-width: 0.5px;"/></g><g class="legendsymbols"><g class="legendpoints"/></g></g><rect class="legendtoggle" x="0" y="-11.9" width="269" height="23.8" style="fill: rgb(0, 0, 0); fill-opacity: 0;"/></g></g><g class="groups" transform="translate(0,10)"><g class="traces" transform="translate(0,64.5)" style="opacity: 1;"><text class="legendtext" text-anchor="start" x="50" y="6.24" style="font-family: 'Open Sans', verdana, arial, sans-serif; font-size: 16px; fill: rgb(42, 63, 95); fill-opacity: 1; white-space: pre;">Ciências Da Saúde</text><g class="layers"><g class="legendfill"/><g class="legendlines"><path class="js-line" d="M5,0h40" style="fill: none; stroke: rgb(0, 158, 115); stroke-opacity: 1; stroke-width: 0.5px;"/></g><g class="legendsymbols"><g class="legendpoints"/></g></g><rect class="legendtoggle" x="0" y="-11.9" width="269" height="23.8" style="fill: rgb(0, 0, 0); fill-opacity: 0;"/></g></g><g class="groups" transform="translate(0,15)"><g class="traces" transform="translate(0,88.30000000000001)" style="opacity: 1;"><text class="legendtext" text-anchor="start" x="50" y="6.24" style="font-family: 'Open Sans', verdana, arial, sans-serif; font-size: 16px; fill: rgb(42, 63, 95); fill-opacity: 1; white-space: pre;">Ciências Exatas E Da Terra</text><g class="layers"><g class="legendfill"/><g class="legendlines"><path class="js-line" d="M5,0h40" style="fill: none; stroke: rgb(240, 228, 66); stroke-opacity: 1; stroke-width: 0.5px;"/></g><g class="legendsymbols"><g class="legendpoints"/></g></g><rect class="legendtoggle" x="0" y="-11.9" width="269" height="23.8" style="fill: rgb(0, 0, 0); fill-opacity: 0;"/></g></g><g class="groups" transform="translate(0,20)"><g class="traces" transform="translate(0,112.10000000000001)" style="opacity: 1;"><text class="legendtext" text-anchor="start" x="50" y="6.24" style="font-family: 'Open Sans', verdana, arial, sans-serif; font-size: 16px; fill: rgb(42, 63, 95); fill-opacity: 1; white-space: pre;">Ciências Humanas</text><g class="layers"><g class="legendfill"/><g class="legendlines"><path class="js-line" d="M5,0h40" style="fill: none; stroke: rgb(0, 114, 178); stroke-opacity: 1; stroke-width: 0.5px;"/></g><g class="legendsymbols"><g class="legendpoints"/></g></g><rect class="legendtoggle" x="0" y="-11.9" width="269" height="23.8" style="fill: rgb(0, 0, 0); fill-opacity: 0;"/></g></g><g class="groups" transform="translate(0,25)"><g class="traces" transform="translate(0,135.9)" style="opacity: 1;"><text class="legendtext" text-anchor="start" x="50" y="6.24" style="font-family: 'Open Sans', verdana, arial, sans-serif; font-size: 16px; fill: rgb(42, 63, 95); fill-opacity: 1; white-space: pre;">Ciências Sociais Aplicadas</text><g class="layers"><g class="legendfill"/><g class="legendlines"><path class="js-line" d="M5,0h40" style="fill: none; stroke: rgb(213, 94, 0); stroke-opacity: 1; stroke-width: 0.5px;"/></g><g class="legendsymbols"><g class="legendpoints"/></g></g><rect class="legendtoggle" x="0" y="-11.9" width="269" height="23.8" style="fill: rgb(0, 0, 0); fill-opacity: 0;"/></g></g><g class="groups" transform="translate(0,30)"><g class="traces" transform="translate(0,159.70000000000002)" style="opacity: 1;"><text class="legendtext" text-anchor="start" x="50" y="6.24" style="font-family: 'Open Sans', verdana, arial, sans-serif; font-size: 16px; fill: rgb(42, 63, 95); fill-opacity: 1; white-space: pre;">Engenharias</text><g class="layers"><g class="legendfill"/><g class="legendlines"><path class="js-line" d="M5,0h40" style="fill: none; stroke: rgb(204, 121, 167); stroke-opacity: 1; stroke-width: 0.5px;"/></g><g class="legendsymbols"><g class="legendpoints"/></g></g><rect class="legendtoggle" x="0" y="-11.9" width="269" height="23.8" style="fill: rgb(0, 0, 0); fill-opacity: 0;"/></g></g><g class="groups" transform="translate(0,35)"><g class="traces" transform="translate(0,183.50000000000003)" style="opacity: 1;"><text class="legendtext" text-anchor="start" x="50" y="6.24" style="font-family: 'Open Sans', verdana, arial, sans-serif; font-size: 16px; fill: rgb(42, 63, 95); fill-opacity: 1; white-space: pre;">Outra</text><g class="layers"><g class="legendfill"/><g class="legendlines"><path class="js-line" d="M5,0h40" style="fill: none; stroke: rgb(0, 0, 0); stroke-opacity: 1; stroke-width: 0.5px;"/></g><g class="legendsymbols"><g class="legendpoints"/></g></g><rect class="legendtoggle" x="0" y="-11.9" width="269" height="23.8" style="fill: rgb(0, 0, 0); fill-opacity: 0;"/></g></g></g><rect class="scrollbar" rx="20" ry="3" width="0" height="0" style="fill: rgb(128, 139, 164); fill-opacity: 1;" x="0" y="0"/></g><g class="g-gtitle"><text class="gtitle" x="60" y="50" text-anchor="start" dy="0em" style="opacity: 1; font-family: 'Open Sans', verdana, arial, sans-serif; font-size: 28px; fill: rgb(42, 63, 95); fill-opacity: 1; white-space: pre;">Investimento por Grande Área (Interativo - Wobbly)</text></g><g class="g-xtitle"><text class="xtitle" x="489" y="759.3" text-anchor="middle" style="opacity: 1; font-family: 'Open Sans', verdana, arial, sans-serif; font-size: 14px; fill: rgb(42, 63, 95); fill-opacity: 1; white-space: pre;">ano_referencia</text></g><g class="g-ytitle"><text class="ytitle" transform="rotate(-90,22.6,410)" x="22.6" y="410" text-anchor="middle" style="opacity: 1; font-family: 'Open Sans', verdana, arial, sans-serif; font-size: 14px; fill: rgb(42, 63, 95); fill-opacity: 1; white-space: pre;">Valor Pago</text></g></g></svg>